<svg xmlns="http://www.w3.org/2000/svg" xmlns:xlink="http://www.w3.org/1999/xlink" viewBox="0 0 1584.384 1318.442"><defs><linearGradient id="c" x1="865.095" x2="1131.468" y1="969.203" y2="969.203" gradientUnits="userSpaceOnUse"><stop offset="0" stop-color="#c4c9e4"/><stop offset=".254" stop-color="#ced2e8"/><stop offset=".677" stop-color="#e7e9f4"/><stop offset="1" stop-color="#fff"/></linearGradient><linearGradient id="d" x1="-116.793" x2="16.377" y1="1170.456" y2="939.8" gradientTransform="rotate(-120.001 421.902 737.808)" gradientUnits="userSpaceOnUse"><stop offset=".409" stop-color="#bbc0e6"/><stop offset=".413" stop-color="#bcc1e7"/><stop offset=".565" stop-color="#ced3f8"/></linearGradient><linearGradient id="a" x1="-118.197" x2="14.973" y1="1169.646" y2="938.989" gradientTransform="rotate(-120.001 421.902 737.808)" gradientUnits="userSpaceOnUse"><stop offset=".409" stop-color="#5652cc"/><stop offset=".496" stop-color="#706ce9"/><stop offset=".565" stop-color="#807dfb"/></linearGradient><linearGradient id="k" x1="481.167" x2="614.334" y1="588.314" y2="357.662" gradientUnits="userSpaceOnUse"><stop offset=".409" stop-color="#bc3153"/><stop offset=".411" stop-color="#bd3254"/><stop offset=".514" stop-color="#ed4f6a"/><stop offset=".565" stop-color="#ff5a72"/></linearGradient><linearGradient id="l" x1="306.096" x2="439.263" y1="689.396" y2="458.744" xlink:href="#a"/><linearGradient id="m" x1="397.782" x2="570.567" y1="539.901" y2="240.629" gradientUnits="userSpaceOnUse"><stop offset=".003" stop-color="#bbc0e6"/><stop offset=".008" stop-color="#bcc1e7"/><stop offset=".169" stop-color="#ced3f8"/></linearGradient><linearGradient id="n" x1="922.661" x2="1452.06" y1="727.295" y2="727.295" gradientUnits="userSpaceOnUse"><stop offset="0" stop-color="#c0c6e4"/><stop offset=".423" stop-color="#e2e5f3"/><stop offset=".771" stop-color="#f7f8fc"/><stop offset="1" stop-color="#fff"/></linearGradient><linearGradient id="o" x1="-173.547" x2="179.983" y1="786.939" y2="786.939" gradientTransform="matrix(-1 0 0 1 973.554 0)" gradientUnits="userSpaceOnUse"><stop offset=".242" stop-color="#423faa"/><stop offset=".304" stop-color="#4441ac"/><stop offset=".337" stop-color="#4946b4"/><stop offset=".363" stop-color="#524fc2"/><stop offset=".385" stop-color="#605bd5"/><stop offset=".399" stop-color="#6b66e5"/></linearGradient><linearGradient id="p" x1="919.155" x2="1142.391" y1="746.466" y2="746.466" gradientUnits="userSpaceOnUse"><stop offset="0" stop-color="#d8def3"/><stop offset=".309" stop-color="#dee3f5"/><stop offset=".739" stop-color="#f1f3fb"/><stop offset="1" stop-color="#fff"/></linearGradient><linearGradient id="q" x1="175.125" x2="-265.21" y1="-35.198" y2="727.484" gradientTransform="matrix(-1 0 0 1 973.554 0)" gradientUnits="userSpaceOnUse"><stop offset=".635" stop-color="#6b67e7"/><stop offset=".697" stop-color="#20196f"/></linearGradient><linearGradient id="r" x1="1316.205" x2="1464.417" y1="926.22" y2="926.22" gradientUnits="userSpaceOnUse"><stop offset="0" stop-color="#dae0f5"/><stop offset=".272" stop-color="#e9ecf9"/><stop offset=".685" stop-color="#f9fafd"/><stop offset="1" stop-color="#fff"/></linearGradient><linearGradient id="s" x1="1115.578" x2="1196.47" y1="904.312" y2="904.312" gradientUnits="userSpaceOnUse"><stop offset=".427" stop-color="#c4c9e4"/><stop offset=".577" stop-color="#d7daed"/><stop offset=".846" stop-color="#f4f5fa"/><stop offset="1" stop-color="#fff"/></linearGradient><linearGradient id="t" x1="1097.747" x2="1178.678" y1="909.102" y2="909.102" gradientUnits="userSpaceOnUse"><stop offset="0" stop-color="#ff5a72"/><stop offset=".394" stop-color="#de4663"/><stop offset=".771" stop-color="#c53757"/><stop offset="1" stop-color="#bc3153"/></linearGradient><linearGradient id="b" x1="1182.6" x2="1268.037" y1="1094.84" y2="1094.84" gradientUnits="userSpaceOnUse"><stop offset="0" stop-color="#c4c9e4"/><stop offset=".188" stop-color="#d7daed"/><stop offset=".477" stop-color="#edeef7"/><stop offset=".753" stop-color="#fafbfd"/><stop offset="1" stop-color="#fff"/></linearGradient><linearGradient id="u" x1="1163.657" x2="1302.109" y1="1041.899" y2="1041.899" xlink:href="#b"/><linearGradient id="v" x1="153.137" x2="238.574" y1="950.745" y2="950.745" xlink:href="#b"/><linearGradient id="w" x1="759.985" x2="817.324" y1="864.396" y2="864.396" xlink:href="#b"/><linearGradient id="x" x1="522.917" x2="732.553" y1="1158.09" y2="1158.09" xlink:href="#c"/><linearGradient id="y" x1="-497.335" x2="-392.522" y1="830.539" y2="648.999" gradientTransform="rotate(-120.001 212.964 656.14)" xlink:href="#d"/><linearGradient id="e" x1="-65.532" x2="34.383" y1="1180.635" y2="1007.576" gradientTransform="matrix(-1 -.5774 -.866 .5 1554.997 656.445)" gradientUnits="userSpaceOnUse"><stop offset=".409" stop-color="#bbc0e6"/><stop offset=".565" stop-color="#c4cae9"/></linearGradient><linearGradient id="z" x1="7.172" x2="53.359" y1="1115.657" y2="1035.658" xlink:href="#e"/><linearGradient id="A" x1="3.275" x2="23.996" y1="1076.738" y2="1040.849" xlink:href="#e"/><linearGradient id="B" x1="298.698" x2="441.123" y1="877.494" y2="877.494" xlink:href="#c"/><linearGradient id="C" x1="-96.377" x2="-25.172" y1="719.302" y2="595.972" gradientTransform="rotate(-120.001 212.964 656.14)" xlink:href="#d"/><linearGradient id="D" x1="330.033" x2="465.874" y1="1029.875" y2="1029.875" gradientUnits="userSpaceOnUse"><stop offset=".331" stop-color="#c4c9e5"/><stop offset=".584" stop-color="#d7dbed"/><stop offset="1" stop-color="#fff"/></linearGradient><linearGradient id="E" x1="360.518" x2="401.557" y1="1014.182" y2="1014.182" gradientUnits="userSpaceOnUse"><stop offset="0" stop-color="#bbbfe2"/><stop offset="1" stop-color="#dce0f7"/></linearGradient><linearGradient id="F" x1="348.927" x2="375.108" y1="1044.418" y2="1044.418" gradientUnits="userSpaceOnUse"><stop offset="0" stop-color="#bbbfe2"/><stop offset="1" stop-color="#ced2f4"/></linearGradient><linearGradient id="G" x1="634.58" x2="647.488" y1="608.457" y2="630.045" gradientTransform="rotate(120.001 397.302 761.954)" gradientUnits="userSpaceOnUse"><stop offset="0" stop-color="#ced2f4"/><stop offset="1" stop-color="#bbbfe2"/></linearGradient><linearGradient id="H" x1="414.14" x2="431.995" y1="1024.051" y2="1024.051" gradientUnits="userSpaceOnUse"><stop offset=".404" stop-color="#bbbfe2"/><stop offset="1" stop-color="#ced2f4"/></linearGradient><linearGradient id="I" x1="549.225" x2="745.45" y1="748.488" y2="748.488" gradientUnits="userSpaceOnUse"><stop offset=".416" stop-color="#c6cbe7"/><stop offset=".587" stop-color="#d2d6ec"/><stop offset=".897" stop-color="#f3f4fa"/><stop offset="1" stop-color="#fff"/></linearGradient><linearGradient id="J" x1="531.411" x2="718.978" y1="769.227" y2="769.227" gradientUnits="userSpaceOnUse"><stop offset="0" stop-color="#ced3f8"/><stop offset="1" stop-color="#bbc0e6"/></linearGradient><linearGradient id="K" x1="625.204" x2="715.284" y1="721.212" y2="721.212" gradientUnits="userSpaceOnUse"><stop offset="0" stop-color="#c4cae9"/><stop offset=".564" stop-color="#d4daf2"/><stop offset="1" stop-color="#dae0f5"/></linearGradient><linearGradient id="f" x1="522.462" x2="616.925" y1="1004.807" y2="1004.807" gradientTransform="translate(-2.29)" gradientUnits="userSpaceOnUse"><stop offset="0" stop-color="#c4cae9"/><stop offset=".095" stop-color="#ced3ed"/><stop offset=".409" stop-color="#e9ebf7"/><stop offset=".687" stop-color="#f9fafd"/><stop offset=".899" stop-color="#fff"/></linearGradient><linearGradient id="L" x1="528.925" x2="616.938" y1="980.794" y2="980.794" gradientTransform="translate(-23.713)" xlink:href="#f"/><linearGradient id="g" x1="505.459" x2="494.821" y1="985.547" y2="959.606" gradientUnits="userSpaceOnUse"><stop offset="0" stop-color="#20196f"/><stop offset=".512" stop-color="#302b8e"/><stop offset="1" stop-color="#423eaf"/></linearGradient><linearGradient id="M" x1="508.948" x2="498.309" y1="984.119" y2="958.173" xlink:href="#g"/><linearGradient id="N" x1="496.685" x2="548.03" y1="925.048" y2="925.048" gradientUnits="userSpaceOnUse"><stop offset="0" stop-color="#20196f"/><stop offset=".788" stop-color="#161350"/><stop offset="1" stop-color="#131147"/></linearGradient><linearGradient id="h" x1="532.837" x2="509.975" y1="1011.395" y2="996.464" gradientUnits="userSpaceOnUse"><stop offset="0" stop-color="#20196f"/><stop offset=".846" stop-color="#322a8e"/><stop offset="1" stop-color="#362e94"/></linearGradient><linearGradient id="O" x1="535.066" x2="512.198" y1="1007.988" y2="993.054" xlink:href="#h"/><linearGradient id="P" x1="-58.485" x2="-27.758" y1="936.059" y2="943.289" gradientTransform="matrix(-1 0 0 1 472.25 0)" gradientUnits="userSpaceOnUse"><stop offset="0" stop-color="#20196f"/><stop offset=".609" stop-color="#342f95"/><stop offset="1" stop-color="#423eaf"/></linearGradient><linearGradient id="Q" x1="542.682" x2="593.911" y1="861.845" y2="861.845" gradientUnits="userSpaceOnUse"><stop offset=".216" stop-color="#bc3153"/><stop offset=".314" stop-color="#c83859"/><stop offset=".592" stop-color="#e64b66"/><stop offset=".83" stop-color="#f8566f"/><stop offset="1" stop-color="#ff5a72"/></linearGradient><linearGradient id="R" x1="-24.987" x2="-80.13" y1="868.448" y2="868.448" gradientTransform="matrix(-1 0 0 1 472.25 0)" gradientUnits="userSpaceOnUse"><stop offset="0" stop-color="#ff5a72"/><stop offset=".118" stop-color="#fa556e"/><stop offset=".633" stop-color="#e94361"/><stop offset="1" stop-color="#e33c5c"/></linearGradient><linearGradient id="S" x1="-294.127" x2="-180.906" y1="988.413" y2="792.309" gradientTransform="rotate(-120.001 212.964 656.14)" xlink:href="#e"/><linearGradient id="T" x1="-337.085" x2="-223.864" y1="963.613" y2="767.507" gradientTransform="rotate(-120.001 212.964 656.14)" xlink:href="#d"/><linearGradient id="U" x1="92.576" x2="200.507" y1="968.723" y2="781.781" xlink:href="#e"/><linearGradient id="V" x1="136.239" x2="211.904" y1="937.915" y2="806.86" xlink:href="#e"/><linearGradient id="W" x1="524.553" x2="507.053" y1="923.294" y2="839.294" gradientUnits="userSpaceOnUse"><stop offset="0" stop-color="#ff5a72"/><stop offset="1" stop-color="#ff826a"/></linearGradient><linearGradient id="i" x1="539.503" x2="605.368" y1="1127.363" y2="1127.363" gradientTransform="matrix(-1 0 0 1 1386.017 0)" gradientUnits="userSpaceOnUse"><stop offset=".006" stop-color="#fff"/><stop offset=".246" stop-color="#fafbfd"/><stop offset=".53" stop-color="#eceef8"/><stop offset=".835" stop-color="#d4d8ef"/><stop offset="1" stop-color="#c4cae9"/></linearGradient><linearGradient id="X" x1="569.082" x2="639.9" y1="1147.268" y2="1147.268" xlink:href="#i"/><linearGradient id="j" x1="218.752" x2="246.635" y1="1124.85" y2="1124.85" gradientTransform="translate(541.953)" gradientUnits="userSpaceOnUse"><stop offset="0" stop-color="#423eaf"/><stop offset=".304" stop-color="#3a35a0"/><stop offset=".891" stop-color="#241e77"/><stop offset="1" stop-color="#20196f"/></linearGradient><linearGradient id="Y" x1="184.516" x2="212.429" y1="1144.678" y2="1144.678" xlink:href="#j"/><linearGradient id="Z" x1="199.289" x2="239.941" y1="1078.208" y2="1078.208" gradientTransform="translate(541.953)" gradientUnits="userSpaceOnUse"><stop offset="0" stop-color="#423eaf"/><stop offset=".244" stop-color="#38339c"/><stop offset=".732" stop-color="#27207b"/><stop offset="1" stop-color="#20196f"/></linearGradient><linearGradient id="aa" x1="121.815" x2="179.841" y1="864.384" y2="864.384" gradientTransform="rotate(-15.968 958.939 -1217.42)" gradientUnits="userSpaceOnUse"><stop offset="0" stop-color="#5652cc"/><stop offset=".011" stop-color="#5653cd"/><stop offset="1" stop-color="#807dfb"/></linearGradient><linearGradient id="ab" x1="666.882" x2="733.372" y1="480.915" y2="480.915" gradientTransform="scale(-1 1) rotate(50.811 -551.955 -757.63)" gradientUnits="userSpaceOnUse"><stop offset="0" stop-color="#807dfb"/><stop offset="1" stop-color="#6b67e9"/></linearGradient></defs><g data-name="Woman holding block"><path fill="#dae0f5" d="m445.15 1142.75-2.305-3.403-81.375 18.367 2.304 3.403Zm-42.559 28.408 38.455.92-1.595-22.201-6.325.152 1.312 18.235-31.586-.757Zm-38.055-21.97 6.324-.15-1.31-18.237 31.584.758.262-3.653-38.454-.92Z"/><path d="m1124.615 960.129-110.617-63.869c-9.13-5.273-24.07-5.272-33.207.002l-108.846 62.843c-9.133 5.273-9.131 13.897-.004 19.172l57.872 33.414v34.408h69.383c6.008-.004 12.013-1.32 16.571-3.952l108.856-62.848c9.13-5.271 9.126-13.899-.008-19.17Z" style="mix-blend-mode:multiply" fill="url(#c)"/><path fill="#f6f6fb" d="M950.242 1003.255c-9.133 5.273-24.074 5.27-33.208-.001l-110.617-63.868c-9.128-5.275-9.13-13.9.003-19.173l108.846-62.842c9.136-5.275 24.076-5.275 33.207-.002l110.617 63.868c9.134 5.272 9.138 13.9.008 19.17Z"/><path fill="#fff" d="M933.642 999.21a26.124 26.124 0 0 1-12.611-2.885l-110.615-63.868c-2.256-1.304-2.827-2.449-2.846-2.662.02-.205.592-1.35 2.85-2.654L919.264 864.3a28.979 28.979 0 0 1 25.205-.002l110.62 63.868c2.261 1.304 2.834 2.45 2.853 2.664-.02.205-.592 1.347-2.846 2.65l-108.855 62.85a26.12 26.12 0 0 1-12.6 2.88Z"/><path fill="url(#d)" d="m799.582 968.318.018.002c-.165 3.6 2.088 7.226 6.82 9.957l110.616 63.868c9.131 5.273 24.075 5.271 33.208-.002l108.846-62.842c4.783-2.762 7.034-6.44 6.808-10.068l.004-37.929c-.2 3.313-2.45 6.59-6.803 9.103l-108.857 62.848c-9.133 5.273-24.074 5.27-33.208-.001l-110.617-63.868c-4.508-2.607-6.784-6.03-6.838-9.461Z"/><path fill="url(#a)" d="m799.582 954.742.018.003c-.165 3.6 2.088 7.226 6.82 9.956l110.616 63.868c9.131 5.274 24.075 5.272 33.208-.001l108.846-62.843c4.783-2.761 7.034-6.44 6.808-10.067l.004-7.535c-.2 3.313-2.45 6.59-6.803 9.103l-108.857 62.848c-9.133 5.273-24.074 5.27-33.208-.001l-110.617-63.869c-4.508-2.606-6.784-6.029-6.838-9.46Z"/><path fill="#fcba06" d="M935.099 887.27c5.441-3.141 14.26-3.141 19.7 0 5.441 3.14 5.442 8.233 0 11.374-5.44 3.14-14.258 3.14-19.7 0-5.44-3.141-5.44-8.234 0-11.374Z"/><path d="m943.267 985.602 36.29-59.457c2.513-4.116-4.35-8.078-11.478-6.628L865.095 940.47Z" style="mix-blend-mode:multiply" fill="#dae0f5"/><path d="m893.85 957.07 25.047-41.035c2.512-4.116-4.35-8.078-11.48-6.628l-71.076 14.461Z" style="mix-blend-mode:multiply" fill="#dfe4f4"/><path fill="#f1f1f6" d="M512.82 473.024c0-10.546 7.473-23.484 16.605-28.76l110.62-63.862c9.132-5.268 16.602-.957 16.602 9.589v125.685c0 10.549-7.47 23.488-16.602 28.759l-110.62 63.863c-9.132 5.274-16.606.964-16.606-9.578Z"/><path fill="url(#k)" d="m644.37 375.006-.012.015c-3.035-1.943-7.302-1.805-12.032.928l-110.62 63.863c-9.132 5.27-16.602 18.213-16.602 28.759v125.685c0 5.523 2.06 9.31 5.314 10.93l6.883 3.977c-2.769-1.83-4.482-5.417-4.482-10.443V473.024c0-10.546 7.474-23.484 16.606-28.76l110.62-63.862c4.51-2.601 8.613-2.86 11.612-1.19Z"/><path fill="#f1f1f6" d="M337.749 574.105c0-10.546 7.473-23.484 16.606-28.759l110.62-63.863c9.132-5.267 16.601-.957 16.601 9.589v125.685c0 10.55-7.47 23.488-16.602 28.759l-110.62 63.863c-9.132 5.275-16.605.965-16.605-9.578Z"/><path fill="url(#l)" d="m469.3 476.088-.012.014c-3.036-1.943-7.302-1.804-12.032.928l-110.62 63.863c-9.133 5.271-16.603 18.213-16.603 28.76v125.684c0 5.523 2.06 9.311 5.315 10.93l6.883 3.978c-2.769-1.83-4.482-5.417-4.482-10.443V574.105c0-10.546 7.473-23.484 16.606-28.759l110.62-63.863c4.51-2.6 8.613-2.86 11.612-1.19Z"/><path fill="#f1f1f6" d="M337.749 482.34c0-10.545 7.473-23.484 16.606-28.758l285.69-164.945c9.132-5.267 16.602-.957 16.602 9.589v15.02c0 10.549-7.47 23.487-16.602 28.759l-285.69 164.944c-9.133 5.275-16.606.965-16.606-9.578Z"/><path fill="url(#m)" d="m644.37 283.242-.012.014c-3.035-1.943-7.302-1.804-12.032.928l-285.69 164.944c-9.133 5.272-16.603 18.213-16.603 28.76v15.019c0 5.523 2.06 9.311 5.315 10.93l6.883 3.978c-2.769-1.83-4.482-5.417-4.482-10.443V482.34c0-10.545 7.473-23.484 16.606-28.758l285.69-164.945c4.51-2.6 8.613-2.86 11.612-1.19Z"/><path fill="#c4cae9" d="m624.57 507.245-33.473 19.326a3.577 3.577 0 0 0-5.065-2.924v-9.151l26.414-15.25a10.542 10.542 0 0 0 4.763-8.25v-40c0-3.033-2.136-4.267-4.763-2.75l-40.874 23.598-2.05-2.369c-.888-1.018-2.368-1.08-3.963-.159l-8.539 4.93a10.541 10.541 0 0 0-4.763 8.25v46c0 3.033 2.136 4.266 4.763 2.75l26.414-15.25v9.151a15.083 15.083 0 0 0-5.065 8.773l-33.473 19.325a2.872 2.872 0 0 0-1.3 2.25c0 .829.583 1.164 1.3.75l33.473-19.325c.604 3.07 3.228 4.136 6.364 2.325a14.604 14.604 0 0 0 6.364-9.674l33.473-19.326a2.872 2.872 0 0 0 1.3-2.25c0-.828-.583-1.164-1.3-.75Zm-67.55 21c-1.194.69-2.165.13-2.165-1.25v-46a4.791 4.791 0 0 1 2.165-3.75l8.539-4.929a1.365 1.365 0 0 1 1.801.073l2.436 2.813a.818.818 0 0 0 1.08.044l41.57-24c1.194-.69 2.165-.13 2.165 1.25v40a4.792 4.792 0 0 1-2.165 3.75Zm27.713 8c-2.148 1.24-3.897.23-3.897-2.25a8.629 8.629 0 0 1 3.897-6.75c2.148-1.24 3.897-.23 3.897 2.25a8.63 8.63 0 0 1-3.897 6.75Zm0-48.499a3.828 3.828 0 0 0-1.732 3c0 1.105.775 1.553 1.732 1a3.829 3.829 0 0 0 1.732-3c0-1.104-.776-1.552-1.732-1Zm6.928-4a3.828 3.828 0 0 0-1.732 3c0 1.105.775 1.553 1.732 1a3.829 3.829 0 0 0 1.732-3c0-1.104-.775-1.552-1.732-1Zm-13.856 8a3.828 3.828 0 0 0-1.732 3c0 1.105.775 1.553 1.732 1a3.829 3.829 0 0 0 1.732-3c0-1.104-.776-1.552-1.732-1ZM444.368 534.22a2.142 2.142 0 0 0-1.416 1.143c-5.056 8.756-9.651 15.298-15.644 18.758-5.837 3.37-10.23 2.186-15.428-.819a.693.693 0 0 0-.418-.081 1.249 1.249 0 0 0-.5.172 2.245 2.245 0 0 0-.5.406 3.054 3.054 0 0 0-.419.564c-4.438 7.687-8.96 14.899-15.43 18.635-6.349 3.665-11.27 1.832-15.642-.696-.372-.215-.93-.02-1.416.491a2.89 2.89 0 0 0-.801 1.85v42c0 25.345 21.66 34.12 33.787 31.912a1.364 1.364 0 0 0 .42-.163 2.207 2.207 0 0 0 .422-.323c12.126-11.794 33.787-45.58 33.787-70.926v-42c0-.607-.317-.972-.802-.924Zm-1.796 44.423c0 22.425-18.848 53.006-30.311 65.305v-33.805c0-.829-.582-1.164-1.3-.75a2.872 2.872 0 0 0-1.298 2.25v33.805c-11.463.938-30.311-7.88-30.311-30.305v-38.479c4.235 2.032 9.073 2.907 15.26-.666 6.3-3.636 10.954-10.067 15.05-16.826v10.47c0 .829.583 1.165 1.3.75a2.872 2.872 0 0 0 1.299-2.25v-10.496c4.688 2.266 9.245 2.825 15.047-.525 6.427-3.71 11.251-10.353 15.264-16.945Zm-31.61 16.75a2.873 2.873 0 0 0-1.3 2.25v6c0 .828.583 1.164 1.3.75a2.872 2.872 0 0 0 1.299-2.25v-6c0-.828-.582-1.164-1.3-.75Z"/><path fill="#807dfb" d="m369.847 477.936-3.95-11.61-3.47 2.005-3.95 16.17-3.95-11.61-3.47 2.005 5.505 15.202 3.83-2.211 3.77-14.754 3.77 10.4 3.83-2.211 5.506-21.56-3.471 2.004Zm27.288-15.755-3.95-11.61-3.47 2.005-3.95 16.17-3.95-11.61-3.47 2.005 5.505 15.202 3.83-2.211 3.77-14.754 3.77 10.4 3.83-2.211 5.506-21.56-3.47 2.004Zm27.289-15.755-3.95-11.61-3.47 2.005-3.95 16.17-3.95-11.61-3.47 2.004 5.505 15.203 3.83-2.211 3.77-14.753 3.77 10.399 3.83-2.21 5.506-21.56-3.47 2.003Zm12.866-7.065a1.564 1.564 0 0 0-1.586.173 4.844 4.844 0 0 0-2.213 3.834 1.563 1.563 0 0 0 .643 1.46 1.488 1.488 0 0 0 1.57-.146 4.969 4.969 0 0 0 2.244-3.887 1.49 1.49 0 0 0-.658-1.434Z"/><path d="M1151.832 805.423h300.228v-75.456l-234.18-135.203-287.893 178.474c-9.768 5.637-9.768 14.866 0 20.507 0 0 104.19 60.121 104.67 60.359l-15.908 5.721h25.544a48.52 48.52 0 0 0 24.49-6.454Z" style="mix-blend-mode:multiply" fill="url(#n)"/><path fill="#f4f4f9" d="M904.147 643.725c9.772-5.638 25.753-5.638 35.525 0l200.11 115.536c9.768 5.642 9.768 14.867 0 20.511l-103.271 59.63c-9.772 5.631-25.757 5.631-35.525 0L800.87 723.858c-9.772-5.638-9.772-14.863 0-20.507Z"/><path fill="url(#o)" d="m800.87 723.858 200.116 115.544c9.768 5.631 25.753 5.631 35.525 0l103.27-59.63c4.694-2.706 7.108-6.249 7.29-9.816.03 0 .03 15.737.03 15.737.006 3.722-2.424 7.445-7.32 10.273l-103.27 59.63c-9.772 5.644-25.757 5.644-35.525 0L800.87 740.056c-5.076-2.932-7.49-6.824-7.287-10.688v-15.32c.18 3.568 2.597 7.104 7.287 9.81Z"/><path d="m1013.29 703.73-1.742-.02h-92.393c.418 3.357 2.816 6.642 7.235 9.194l110.256 63.654-.788 1.71-18.983 10.954h106.536l18.98-10.954Z" style="mix-blend-mode:multiply" fill="url(#p)"/><path fill="#ccd1f6" d="M902.054 683.396a170.647 170.647 0 0 0 8.052-54.29l14.21-8.203c0 3.632-.009 9.16-.478 16.13l115.37 66.607c0 12.176-.016 48.7-22.333 85.582l-129.105-74.53Z"/><path fill="#c4b2b9" d="m910.106 629.099 129.102 74.541 14.207-8.203-129.098-74.534-14.211 8.196z"/><path fill="#b9bee4" d="M1016.875 789.222c22.317-36.881 22.332-73.406 22.332-85.582l14.208-8.203a190.588 190.588 0 0 1-17.557 82.83Z"/><path d="m1032.091 754.996 15.262-8.814a189.467 189.467 0 0 0 4.953-27.473l-14.358 8.3a163.897 163.897 0 0 1-5.857 27.987Z" style="mix-blend-mode:multiply" fill="#d6dcf1"/><path fill="#423eaf" d="M696.349 123.599c.006-11.283 7.994-15.894 17.759-10.254l478.62 276.33c9.77 5.638 17.76 19.479 17.763 30.761l-.003 320.812-514.133-296.833Z"/><path fill="url(#q)" d="m733.368 102.23 478.62 276.33c9.77 5.638 17.764 19.479 17.764 30.76v320.82l-19.264 11.108.003-320.812c-.003-11.282-7.994-25.123-17.762-30.761l-478.621-276.33c-3.986-2.3-7.653-2.87-10.637-2.001l15.407-8.767c3.224-3.393 8.521-3.795 14.49-.347Z"/><path fill="#d5dbfb" d="m1210.488 741.248.003 64.863c-.003 11.282-7.994 15.891-17.762 10.253L714.108 540.036c-9.765-5.638-17.76-19.485-17.76-30.761l.007-64.86Z"/><path fill="#b9bee4" d="m1210.491 806.11-.003-64.862 19.264-11.109v64.856c0 5.67-2.029 9.66-5.282 11.495l-18.463 10.588c2.777-2.025 4.484-5.78 4.484-10.967Z"/><path fill="#fff" d="m714.111 454.669 478.617 276.332V410.183l-478.62-276.33.003 320.816z"/><path fill="#dfe4f4" d="m785.187 204.032-56.046-32.358V158.39l56.046 32.359v13.283zM1030.043 340.874l-29.206-16.862v-4.232l29.206 16.862v4.232zM1073.802 366.138l-29.206-16.862v-4.232l29.206 16.862v4.232zM1117.561 391.403l-29.206-16.862v-4.233l29.206 16.862v4.233zM1161.32 416.667l-29.206-16.862v-4.232l29.206 16.862v4.232z"/><path fill="#807dfb" d="m889.849 418.778 127.139 73.404v123.131l-127.139-73.404V418.778z"/><path fill="#dae0f5" d="m745.516 335.447 127.14 73.404v123.132l-127.14-73.404V335.447zM1161.32 575.512l-127.139-73.404V625.24l127.139 73.404V575.512z"/><path fill="#f1f1f6" d="M1192.728 579.421 714.108 303.09V178.828l478.62 276.331v124.262z"/><path fill="#dfe4f4" d="M1192.728 482.16c-51.322-42.298-65.427 9.64-94.978-10.837-80.762-55.961-99.451-4.156-167.937-43.696l262.916 151.794Z"/><path fill="#d1d7f3" d="M984.806 459.377c72.746 36.404 93.041 19.309 126.007 50.154 37.672 35.25 48.064-11.785 81.915 11.295v58.595Z"/><path fill="#fff" d="m973.981 356.224-84.132-48.574v-4.232l84.132 48.574v4.232zM942.804 350.532l-52.955-30.574v-4.232l52.955 30.573v4.233zM953.418 368.968l-63.569-36.702v-4.233l63.569 36.702v4.233zM925.05 364.897l-35.201-20.324v-4.232l35.201 20.324v4.232zM962.289 398.705l-72.44-41.824v-4.232l72.44 41.823v4.233zM1129.62 654.376l-5.889-3.4v-2a2.297 2.297 0 0 0-1.04-1.8c-.573-.332-1.038-.063-1.038.6v2l-6.236-3.6v-2a2.298 2.298 0 0 0-1.039-1.8c-.574-.332-1.04-.063-1.04.6v2l-6.234-3.6v-2a2.298 2.298 0 0 0-1.04-1.8c-.573-.332-1.04-.063-1.04.6v2l-6.234-3.6v-2a2.297 2.297 0 0 0-1.04-1.8c-.573-.332-1.039-.063-1.039.6v2l-6.235-3.6v-2a2.297 2.297 0 0 0-1.04-1.8c-.573-.332-1.039-.063-1.039.6v2l-6.235-3.6v-2a2.298 2.298 0 0 0-1.04-1.8c-.573-.332-1.038-.063-1.038.6v2l-6.236-3.6v-2a2.298 2.298 0 0 0-1.04-1.8c-.573-.332-1.038-.063-1.038.6v2l-5.89-3.4c-.573-.332-1.039-.063-1.039.6a2.299 2.299 0 0 0 1.04 1.8l63.74 36.8c.573.33 1.038.062 1.038-.6a2.297 2.297 0 0 0-1.039-1.8Zm-62.354-48 5.543 3.2c.574.33 1.04.062 1.04-.6v-6.4a1.951 1.951 0 0 0-.172-.718l8.772-9.116 4.216 2.434c.574.33 1.04.062 1.04-.6v-.148l6.235 6.48v3.668a2.297 2.297 0 0 0 1.04 1.8l5.542 3.2c.573.33 1.039.062 1.039-.6v-6.4a1.95 1.95 0 0 0-.17-.718l8.771-9.116 4.216 2.434c.574.33 1.04.062 1.04-.6v-5.545l7.365-3.402 5.451 3.147c.574.331 1.04.062 1.04-.6v-6.4a2.298 2.298 0 0 0-1.04-1.8l-5.542-3.2c-.574-.331-1.04-.063-1.04.6v5.545l-7.365 3.402-5.452-3.147c-.573-.331-1.039-.063-1.039.6v6.4a1.95 1.95 0 0 0 .17.717l-8.77 9.117-4.217-2.434c-.574-.331-1.04-.063-1.04.6v.148l-6.235-6.48v-3.668a2.298 2.298 0 0 0-1.039-1.8l-5.542-3.2c-.574-.331-1.04-.063-1.04.6v6.4a1.95 1.95 0 0 0 .17.717l-8.77 9.117-4.217-2.434c-.574-.332-1.039-.063-1.039.6v6.4a2.297 2.297 0 0 0 1.04 1.8Zm56.465-26.6 3.464 2v4l-3.464-2Zm-13.856 6.4 3.464 2v4l-3.464-2Zm-13.857 14.4 3.464 2v4l-3.464-2Zm-13.856-14.4 3.464 2v4l-3.464-2Zm-13.856 14.4 3.464 2v4l-3.464-2Zm37.107 14.575c-.406-.703-1.063-1.082-1.47-.848-.405.234-.405.994 0 1.697l4.158 7.2a2.126 2.126 0 0 0 .735.776l11.085 6.4c.573.33 1.039.062 1.039-.6a2.298 2.298 0 0 0-1.04-1.8l-10.654-6.152Zm7.58 5.225a3.063 3.063 0 0 0-1.386-2.4c-.765-.442-1.386-.084-1.386.8a3.063 3.063 0 0 0 1.386 2.4c.765.441 1.385.083 1.385-.8Zm5.542 3.2a3.063 3.063 0 0 0-1.386-2.4c-.765-.442-1.385-.084-1.385.8a3.063 3.063 0 0 0 1.385 2.4c.766.441 1.386.083 1.386-.8ZM810.125 416.715a2.298 2.298 0 0 0-1.039-1.8c-8.977-5.182-16.281-.965-16.281 9.4s7.304 23.017 16.281 28.2a14.583 14.583 0 0 0 7.402 2.224c.51-.007.713-.614.452-1.355-.261-.738-.885-1.336-1.4-1.33a12.723 12.723 0 0 1-6.454-1.939c-7.832-4.522-14.203-15.556-14.203-24.6 0-9.043 6.37-12.721 14.203-8.2.574.332 1.04.063 1.04-.6Zm-20.784 5.6c0-12.571 8.858-17.685 19.745-11.4.574.332 1.04.063 1.04-.6a2.297 2.297 0 0 0-1.04-1.8c-12.034-6.947-21.824-1.295-21.824 12.6s9.79 30.853 21.824 37.8c7.532 4.349 14.434 3.939 18.463-1.1a1.687 1.687 0 0 0-.324-1.841c-.484-.638-1.127-.835-1.433-.454-3.645 4.558-9.891 4.93-16.706.995-10.888-6.286-19.745-21.628-19.745-34.2Zm50.608 16.002a2.027 2.027 0 0 0-1.335-1.48c-.54-.079-.814.453-.613 1.19a51.767 51.767 0 0 1 1.916 13.488c0 19.63-13.831 27.615-30.83 17.8-17-9.815-30.832-33.77-30.832-53.4s13.831-27.614 30.831-17.8c.574.332 1.04.063 1.04-.6a2.297 2.297 0 0 0-1.04-1.8c-18.146-10.476-32.909-1.953-32.909 19s14.763 46.524 32.91 57c18.145 10.477 32.908 1.953 32.908-19a55.283 55.283 0 0 0-2.046-14.398Zm-30.863 24.598c-13.944-8.05-25.288-27.698-25.288-43.8 0-16.101 11.344-22.65 25.288-14.6.574.332 1.04.063 1.04-.6a2.297 2.297 0 0 0-1.04-1.8c-15.09-8.712-27.366-1.625-27.366 15.8s12.275 38.688 27.366 47.4c15.09 8.713 27.366 1.625 27.366-15.8a2.298 2.298 0 0 0-1.039-1.8c-.574-.33-1.039-.062-1.039.6 0 16.102-11.344 22.65-25.288 14.6Zm1.732-21.8a8.433 8.433 0 0 0 3.81 6.6c2.102 1.214 3.811.227 3.811-2.2a8.433 8.433 0 0 0-3.81-6.6c-2.102-1.213-3.81-.226-3.81 2.2Zm5.543 3.2c0 1.103-.777 1.552-1.732 1a3.833 3.833 0 0 1-1.733-3c0-1.103.777-1.551 1.733-1a3.833 3.833 0 0 1 1.732 3Zm-16.628-22.4a8.434 8.434 0 0 0 3.81 6.6c2.102 1.214 3.811.227 3.811-2.2a8.434 8.434 0 0 0-3.81-6.6c-2.102-1.213-3.811-.226-3.811 2.2Zm5.543 3.2c0 1.104-.777 1.552-1.732 1a3.833 3.833 0 0 1-1.732-3c0-1.103.776-1.551 1.732-1a3.833 3.833 0 0 1 1.731 3Zm-3.853 13.025a2.114 2.114 0 0 0 .735.775.734.734 0 0 0 .735.073l13.856-8c.406-.234.406-.994 0-1.697-.406-.703-1.064-1.083-1.47-.848l-13.856 8c-.406.234-.406.993 0 1.697ZM953.418 515.446c-.765-.442-1.386-.084-1.386.8a3.063 3.063 0 0 0 1.386 2.4c.765.441 1.386.083 1.386-.8a3.062 3.062 0 0 0-1.386-2.4Zm0-6c-3.629-2.096-6.582-.391-6.582 3.8a14.57 14.57 0 0 0 6.582 11.4c3.63 2.095 6.582.39 6.582-3.8a14.569 14.569 0 0 0-6.582-11.4Zm0 12.8a9.968 9.968 0 0 1-4.503-7.8c0-2.868 2.02-4.034 4.503-2.6a9.968 9.968 0 0 1 4.503 7.8c0 2.867-2.02 4.033-4.503 2.6Zm27.127 9.694c-.483-.95-12.004-23.363-27.127-32.094-15.123-8.732-26.644.38-27.127.77-.32.262-.32.905 0 1.535.483.95 12.004 23.363 27.127 32.094 15.123 8.732 26.644-.38 27.127-.77.32-.261.32-.905 0-1.535Zm-27.127-.095c-12.297-7.1-22.435-24.618-24.936-29.196 2.498-1.696 12.62-7.514 24.936-.403 12.298 7.1 22.436 24.618 24.936 29.196-2.498 1.696-12.62 7.514-24.936.403Zm-5.542-38.8c.765.442 1.385.084 1.385-.8a3.062 3.062 0 0 0-1.385-2.4c-.766-.441-1.386-.083-1.386.8a3.063 3.063 0 0 0 1.386 2.4Zm0-6.4c.765.443 1.385.084 1.385-.8a3.063 3.063 0 0 0-1.385-2.4c-.766-.441-1.386-.083-1.386.8a3.063 3.063 0 0 0 1.386 2.4Zm5.542 9.6c.765.442 1.386.084 1.386-.8a3.062 3.062 0 0 0-1.386-2.4c-.765-.441-1.386-.083-1.386.8a3.063 3.063 0 0 0 1.386 2.4Zm-11.085-19.2c.765.443 1.386.084 1.386-.8a3.063 3.063 0 0 0-1.386-2.4c-.765-.441-1.386-.083-1.386.8a3.063 3.063 0 0 0 1.386 2.4Zm5.543 3.2c.765.443 1.385.084 1.385-.8a3.063 3.063 0 0 0-1.385-2.4c-.766-.441-1.386-.083-1.386.8a3.063 3.063 0 0 0 1.386 2.4Zm-11.086 6.4c.766.442 1.386.084 1.386-.8a3.062 3.062 0 0 0-1.386-2.4c-.765-.441-1.385-.083-1.385.8a3.063 3.063 0 0 0 1.385 2.4Zm0-6.4c.766.443 1.386.084 1.386-.8a3.063 3.063 0 0 0-1.386-2.4c-.765-.441-1.385-.083-1.385.8a3.063 3.063 0 0 0 1.385 2.4Zm0-6.4c.766.443 1.386.084 1.386-.8a3.063 3.063 0 0 0-1.386-2.4c-.765-.441-1.385-.083-1.385.8a3.063 3.063 0 0 0 1.385 2.4Zm5.543 16c.765.442 1.386.084 1.386-.8a3.062 3.062 0 0 0-1.386-2.4c-.765-.441-1.386-.083-1.386.8a3.063 3.063 0 0 0 1.386 2.4Zm0-6.4c.765.443 1.386.084 1.386-.8a3.063 3.063 0 0 0-1.386-2.4c-.765-.441-1.386-.083-1.386.8a3.063 3.063 0 0 0 1.386 2.4Zm27.713 16c.765.443 1.385.084 1.385-.8a3.063 3.063 0 0 0-1.385-2.4c-.765-.441-1.386-.083-1.386.8a3.063 3.063 0 0 0 1.386 2.4Zm0 6.4c.765.442 1.385.084 1.385-.8a3.062 3.062 0 0 0-1.385-2.4c-.765-.441-1.386-.083-1.386.8a3.063 3.063 0 0 0 1.386 2.4Zm-16.628-22.4c.765.443 1.386.084 1.386-.8a3.062 3.062 0 0 0-1.386-2.4c-.765-.441-1.386-.083-1.386.8a3.063 3.063 0 0 0 1.386 2.4Zm11.085 6.4c.765.443 1.386.084 1.386-.8a3.063 3.063 0 0 0-1.386-2.4c-.765-.441-1.385-.083-1.385.8a3.063 3.063 0 0 0 1.385 2.4Zm5.543 3.2c.765.443 1.385.084 1.385-.8a3.063 3.063 0 0 0-1.385-2.4c-.765-.441-1.386-.083-1.386.8a3.063 3.063 0 0 0 1.386 2.4Zm-33.256 0c.766.442 1.386.084 1.386-.8a3.063 3.063 0 0 0-1.386-2.4c-.765-.441-1.385-.083-1.385.8a3.063 3.063 0 0 0 1.385 2.4Zm33.256 19.2c.765.442 1.385.084 1.385-.8a3.063 3.063 0 0 0-1.385-2.4c-.765-.441-1.386-.083-1.386.8a3.063 3.063 0 0 0 1.386 2.4Zm-5.543-16c.765.443 1.386.084 1.386-.8a3.063 3.063 0 0 0-1.386-2.4c-.765-.441-1.385-.083-1.385.8a3.063 3.063 0 0 0 1.385 2.4Zm-5.542-3.2c.765.443 1.385.084 1.385-.8a3.063 3.063 0 0 0-1.385-2.4c-.766-.441-1.386-.083-1.386.8a3.063 3.063 0 0 0 1.386 2.4Zm0 6.4c.765.442 1.385.084 1.385-.8a3.062 3.062 0 0 0-1.385-2.4c-.766-.441-1.386-.083-1.386.8a3.063 3.063 0 0 0 1.386 2.4Zm0-12.8c.765.443 1.385.084 1.385-.8a3.063 3.063 0 0 0-1.385-2.4c-.766-.441-1.386-.083-1.386.8a3.063 3.063 0 0 0 1.386 2.4Zm5.542 16c.765.442 1.386.084 1.386-.8a3.062 3.062 0 0 0-1.386-2.4c-.765-.441-1.385-.083-1.385.8a3.063 3.063 0 0 0 1.385 2.4Zm-11.085-12.8c.765.443 1.386.084 1.386-.8a3.062 3.062 0 0 0-1.386-2.4c-.765-.441-1.386-.083-1.386.8a3.063 3.063 0 0 0 1.386 2.4Zm11.085 67.2c-.765-.441-1.385-.083-1.385.8a3.063 3.063 0 0 0 1.385 2.4c.765.442 1.386.084 1.386-.8a3.063 3.063 0 0 0-1.386-2.4Zm-5.542-16c-.766-.441-1.386-.083-1.386.8a3.063 3.063 0 0 0 1.386 2.4c.765.442 1.385.084 1.385-.8a3.063 3.063 0 0 0-1.385-2.4Zm-5.543-3.2c-.765-.441-1.386-.083-1.386.8a3.063 3.063 0 0 0 1.386 2.4c.765.442 1.386.084 1.386-.8a3.063 3.063 0 0 0-1.386-2.4Zm11.085 12.8c-.765-.441-1.385-.083-1.385.8a3.063 3.063 0 0 0 1.385 2.4c.765.442 1.386.084 1.386-.8a3.063 3.063 0 0 0-1.386-2.4Zm-5.542-3.2c-.766-.441-1.386-.083-1.386.8a3.063 3.063 0 0 0 1.386 2.4c.765.442 1.385.084 1.385-.8a3.063 3.063 0 0 0-1.385-2.4Zm0 6.4c-.766-.441-1.386-.083-1.386.8a3.063 3.063 0 0 0 1.386 2.4c.765.442 1.385.084 1.385-.8a3.063 3.063 0 0 0-1.385-2.4Zm11.085-12.8c-.765-.441-1.386-.083-1.386.8a3.063 3.063 0 0 0 1.386 2.4c.765.442 1.385.084 1.385-.8a3.063 3.063 0 0 0-1.385-2.4Zm0 6.4c-.765-.441-1.386-.083-1.386.8a3.063 3.063 0 0 0 1.386 2.4c.765.442 1.385.084 1.385-.8a3.063 3.063 0 0 0-1.385-2.4Zm-33.256-6.4c-.765-.441-1.385-.083-1.385.8a3.063 3.063 0 0 0 1.386 2.4c.765.442 1.385.084 1.385-.8a3.063 3.063 0 0 0-1.386-2.4Zm27.713 3.2c-.765-.441-1.385-.083-1.385.8a3.063 3.063 0 0 0 1.385 2.4c.765.442 1.386.084 1.386-.8a3.063 3.063 0 0 0-1.386-2.4Zm5.543 9.6c-.765-.441-1.386-.083-1.386.8a3.063 3.063 0 0 0 1.386 2.4c.765.442 1.385.084 1.385-.8a3.063 3.063 0 0 0-1.385-2.4Zm0 6.4c-.765-.441-1.386-.083-1.386.8a3.063 3.063 0 0 0 1.386 2.4c.765.442 1.385.084 1.385-.8a3.063 3.063 0 0 0-1.385-2.4Zm-33.256-38.4c-.765-.441-1.385-.083-1.385.8a3.063 3.063 0 0 0 1.386 2.4c.765.442 1.385.084 1.385-.8a3.063 3.063 0 0 0-1.386-2.4Zm16.628 22.4c-.765-.441-1.386-.083-1.386.8a3.063 3.063 0 0 0 1.386 2.4c.765.442 1.386.084 1.386-.8a3.062 3.062 0 0 0-1.386-2.4Zm-11.085 0c-.765-.441-1.386-.083-1.386.8a3.063 3.063 0 0 0 1.386 2.4c.765.442 1.386.084 1.386-.8a3.063 3.063 0 0 0-1.386-2.4Zm-5.543-16c-.765-.441-1.385-.083-1.385.8a3.063 3.063 0 0 0 1.386 2.4c.765.442 1.385.084 1.385-.8a3.063 3.063 0 0 0-1.386-2.4Zm0 6.4c-.765-.441-1.385-.083-1.385.8a3.063 3.063 0 0 0 1.386 2.4c.765.442 1.385.084 1.385-.8a3.063 3.063 0 0 0-1.386-2.4Zm5.543 3.2c-.765-.441-1.386-.083-1.386.8a3.063 3.063 0 0 0 1.386 2.4c.765.442 1.386.084 1.386-.8a3.063 3.063 0 0 0-1.386-2.4Zm0-6.4c-.765-.441-1.386-.083-1.386.8a3.063 3.063 0 0 0 1.386 2.4c.765.442 1.386.084 1.386-.8a3.063 3.063 0 0 0-1.386-2.4Zm11.085 19.2c-.765-.441-1.386-.083-1.386.8a3.063 3.063 0 0 0 1.386 2.4c.765.442 1.386.084 1.386-.8a3.062 3.062 0 0 0-1.386-2.4Zm-5.542-16c-.766-.441-1.386-.083-1.386.8a3.063 3.063 0 0 0 1.386 2.4c.765.442 1.385.084 1.385-.8a3.063 3.063 0 0 0-1.385-2.4Zm0 12.8c-.766-.441-1.386-.083-1.386.8a3.063 3.063 0 0 0 1.386 2.4c.765.442 1.385.084 1.385-.8a3.063 3.063 0 0 0-1.385-2.4Zm0-6.4c-.766-.441-1.386-.083-1.386.8a3.063 3.063 0 0 0 1.386 2.4c.765.442 1.385.084 1.385-.8a3.063 3.063 0 0 0-1.385-2.4Z"/><path fill="#ff5a72" d="m820.506 328.006-23.058-13.313v9.552l23.058 13.312v-9.551zM787.53 288.241c-8.957.89-14.443 17.37-5.294 37.586 0-14.936 4.33-18.61 10.581-17.034ZM830.64 313.13c8.956 11.233 14.442 34.048 5.293 43.7 0-14.935-4.33-23.611-10.58-29.251Z"/><path fill="#dae0f5" d="M809.086 227.33c-11.472 6.218-22.663 22.979-22.661 45.561-.002 24.428 8.273 40.216 8.273 40.216l14.387 8.305s10.48 6.053 14.386 8.307c0 0 8.275-6.232 8.275-30.659 0-22.584-11.188-52.265-22.66-71.73Z"/><path fill="#fff" d="M796.359 271.344c0-8.116 5.7-11.404 12.727-7.347 7.028 4.057 12.724 13.925 12.724 22.041 0 8.114-5.696 11.405-12.724 7.348-7.032-4.06-12.727-13.926-12.727-22.042Z"/><path fill="#807dfb" d="M799.88 273.377c.001-5.87 4.122-8.25 9.205-5.315 5.083 2.935 9.205 10.073 9.205 15.944 0 5.868-4.121 8.248-9.204 5.313-5.086-2.936-9.206-10.073-9.206-15.942Z"/><path fill="#fff" d="M817.052 350.928v-15.365l-7.967-4.6-7.966-4.6v15.366c0 4.75-1.21 10.898-11.818 4.773 3.888 4.72 11.386 10.059 19.784 15.112 8.398 4.644 15.897 7.963 19.785 7.733-10.609-6.125-11.818-13.669-11.818-18.419Z"/><path style="mix-blend-mode:multiply" fill="url(#r)" d="M1316.205 910.788h148.212v30.865h-148.212z"/><path fill="#fcba06" d="m1258.422 499.066 57.79 33.366-.007 409.221-57.788-33.363.005-409.224z"/><path fill="#dc8b00" d="m1291.873 772.169-9.124-5.268.002-98.349 9.125 5.275-.003 98.342z"/><path fill="#ffd03e" d="m1321.032 529.648-57.787-33.367-4.823 2.785 57.79 33.366 4.82-2.784z"/><path fill="#dc8b00" d="m1321.037 938.863-.005-409.215-4.82 2.784-.007 409.221 4.832-2.79z"/><path fill="#f6f6fb" d="m1258.417 509.371 10.26 5.93.009-1.65-10.271-5.928.002 1.648zM1258.421 545.046l10.261 5.918.004-1.643-10.271-5.921.006 1.646zM1258.417 580.718l10.269 5.919-.001-1.647-10.265-5.921-.003 1.649zM1258.42 616.381l10.259 5.928.01-1.646-10.272-5.923.003 1.641zM1258.415 652.056l10.276 5.931-.01-1.649-10.264-5.935-.002 1.653zM1258.42 687.726l10.264 5.927.01-1.646-10.28-5.927.006 1.646zM1258.421 723.394l10.264 5.929-.005-1.642-10.27-5.935.011 1.648zM1258.412 759.061l10.271 5.933.004-1.643-10.27-5.937-.005 1.647zM1258.413 794.729l10.274 5.938-.003-1.652-10.267-5.927-.004 1.641zM1258.419 830.41l10.265 5.926-.001-1.648-10.26-5.927-.004 1.649zM1258.417 866.077l10.269 5.93-.001-1.647-10.272-5.932.004 1.649zM1258.417 900.103l10.268 5.923-.001 1.646-10.267-5.92v-1.649zM1258.417 514.451l5.135 2.968.01-1.649-5.145-2.966v1.647zM1258.417 519.564l5.135 2.968.01-1.649-5.145-2.967v1.648zM1258.417 524.677l5.135 2.968.01-1.65-5.145-2.966v1.648zM1258.417 529.79l5.135 2.968.01-1.65-5.145-2.966v1.648zM1258.417 534.903l5.135 2.967.01-1.649-5.145-2.966v1.648zM1258.417 540.015l5.135 2.968.01-1.649-5.145-2.966v1.647zM1258.417 550.129l5.135 2.968.009-1.65-5.144-2.966v1.648zM1258.417 555.241l5.135 2.968.009-1.649-5.144-2.966v1.647zM1258.417 560.354l5.135 2.968.009-1.649-5.144-2.967v1.648zM1258.417 565.467l5.135 2.968.009-1.65-5.144-2.966v1.648zM1258.417 570.58l5.135 2.968.009-1.65-5.144-2.966v1.648zM1258.417 575.692l5.135 2.968.009-1.649-5.144-2.966v1.647zM1258.417 585.806l5.135 2.968.009-1.65-5.144-2.966v1.648zM1258.417 590.919l5.135 2.968.009-1.65-5.144-2.966v1.648zM1258.417 596.031l5.135 2.968.009-1.649-5.144-2.966v1.647zM1258.417 601.144l5.135 2.968.009-1.649-5.144-2.967v1.648zM1258.417 606.257l5.135 2.968.009-1.65-5.144-2.966v1.648zM1258.417 611.37l5.135 2.968.009-1.65-5.144-2.966v1.648zM1258.416 621.483l5.136 2.968.009-1.65-5.145-2.966v1.648zM1258.416 626.596l5.136 2.968.009-1.65-5.145-2.966v1.648zM1258.416 631.709l5.136 2.967.009-1.649-5.145-2.966v1.648zM1258.416 636.821l5.136 2.968.009-1.649-5.145-2.966v1.647zM1258.416 641.934l5.136 2.968.009-1.65-5.145-2.966v1.648zM1258.416 647.047l5.136 2.968.009-1.65-5.145-2.966v1.648zM1258.416 657.16l5.136 2.968.009-1.649-5.145-2.967v1.648zM1258.416 662.273l5.136 2.968.009-1.65-5.145-2.966v1.648zM1258.416 667.386l5.136 2.968.009-1.65-5.145-2.966v1.648zM1258.416 672.499l5.136 2.967.009-1.649-5.145-2.966v1.648zM1258.416 677.611l5.136 2.968.009-1.649-5.145-2.966v1.647zM1258.416 682.724l5.136 2.968.009-1.65-5.145-2.966v1.648zM1258.416 692.837l5.135 2.968.009-1.649-5.144-2.966v1.647zM1258.416 697.95l5.135 2.968.009-1.649-5.144-2.967v1.648zM1258.416 703.063l5.135 2.968.009-1.65-5.144-2.966v1.648zM1258.416 708.176l5.135 2.968.009-1.65-5.144-2.966v1.648zM1258.416 713.288l5.135 2.968.009-1.649-5.144-2.966v1.647zM1258.416 718.401l5.135 2.968.009-1.649-5.144-2.966v1.647zM1258.416 728.515l5.135 2.968.009-1.65-5.144-2.966v1.648zM1258.416 733.627l5.135 2.968.009-1.649-5.144-2.966v1.647zM1258.416 738.74l5.135 2.968.009-1.649-5.144-2.967v1.648zM1258.416 743.853l5.135 2.968.009-1.65-5.144-2.966v1.648zM1258.416 748.966l5.135 2.968.009-1.65-5.144-2.966v1.648zM1258.416 754.078l5.135 2.968.009-1.649-5.144-2.966v1.647zM1258.416 764.192l5.135 2.968.009-1.65-5.144-2.966v1.648zM1258.416 769.305l5.135 2.967.009-1.649-5.144-2.966v1.648zM1258.416 774.417l5.135 2.968.009-1.649-5.144-2.966v1.647zM1258.416 779.53l5.135 2.968.009-1.65-5.144-2.966v1.648zM1258.416 784.643l5.135 2.968.009-1.65-5.144-2.966v1.648zM1258.416 789.756l5.135 2.968.009-1.65-5.144-2.966v1.648zM1258.415 799.869l5.136 2.968.009-1.65-5.145-2.966v1.648zM1258.415 804.982l5.136 2.968.009-1.65-5.145-2.966v1.648zM1258.415 810.095l5.136 2.967.009-1.649-5.145-2.966v1.648zM1258.415 815.207l5.136 2.968.009-1.649-5.145-2.966v1.647zM1258.415 820.32l5.136 2.968.009-1.65-5.145-2.966v1.648zM1258.415 825.433l5.136 2.968.009-1.65-5.145-2.966v1.648zM1258.415 835.546l5.135 2.968.009-1.649-5.144-2.967v1.648zM1258.415 840.659l5.135 2.968.009-1.65-5.144-2.966v1.648zM1258.415 845.772l5.135 2.968.009-1.65-5.144-2.966v1.648zM1258.415 850.884l5.135 2.968.009-1.649-5.144-2.966v1.647zM1258.415 855.997l5.135 2.968.009-1.649-5.144-2.966v1.647zM1258.415 861.11l5.135 2.968.009-1.65-5.144-2.966v1.648zM1258.415 871.223l5.135 2.968.009-1.649-5.144-2.966v1.647zM1258.415 876.336l5.135 2.968.009-1.649-5.144-2.967v1.648zM1258.415 881.449l5.135 2.968.009-1.65-5.144-2.966v1.648zM1258.415 886.562l5.135 2.968.009-1.65-5.144-2.966v1.648zM1258.415 891.674l5.135 2.968.009-1.649-5.144-2.966v1.647zM1258.415 896.787l5.135 2.968.009-1.649-5.144-2.967v1.648z"/><path d="M1184.528 887.737c-8.454-4.885-19.695-7.134-30.737-6.802h-17.31v2.832a45.753 45.753 0 0 0-9.159 3.97c-15.736 9.153-15.645 23.985.195 33.139a46.084 46.084 0 0 0 8.963 3.883v2.963h20.763c9.985-.168 19.877-2.433 27.473-6.844 15.743-9.156 15.662-23.988-.188-33.14Z" style="mix-blend-mode:multiply" fill="url(#s)"/><path fill="url(#t)" d="M1109.686 920.889c-7.972-4.605-11.964-10.648-11.94-16.684l.034-13.757c-.016 6.038 3.965 12.08 11.937 16.685 15.852 9.151 41.46 9.151 57.201.01 7.826-4.554 11.743-10.498 11.76-16.458l-.035 13.757c-.017 5.956-3.934 11.9-11.756 16.449-15.74 9.153-41.356 9.153-57.2-.002Z"/><path fill="#f6f6fb" d="M1109.717 907.133c-15.843-9.144-15.929-23.985-.188-33.13 15.743-9.152 41.363-9.152 57.206 0 15.85 9.145 15.929 23.986.183 33.14-15.74 9.141-41.35 9.141-57.2-.01Z"/><path fill="#bbc0e6" d="m1158.979 888.684-29.931 1.521.93-6.727h-8.27l-2.247 12.264 39.518-2.284v-4.774z"/><path style="mix-blend-mode:multiply" fill="url(#b)" d="M1234.868 1075.687H1182.6l33.177 19.153-33.177 19.153h52.268l33.17-19.153-33.17-19.153z"/><path style="mix-blend-mode:multiply" fill="url(#u)" d="M1248.356 1010.861h-84.699l53.762 31.038-53.762 31.038h84.699l53.753-31.038-53.753-31.038z"/><path fill="#bbc0e6" d="m1163.657 1072.937 53.762-31.038v-62.072l-53.762 31.034v62.076z"/><path fill="#ced3f8" d="m1163.657 1072.937-53.752-31.038v-62.072l53.752 31.034v62.076z"/><path fill="#f6f6fb" d="m1163.657 1010.861-53.752-31.034 53.752-31.028 53.762 31.028-53.762 31.034z"/><path fill="#bbc0e6" d="m1182.6 1113.993 33.177-19.153v-38.304l-33.177 19.151v38.306z"/><path fill="#ced3f8" d="m1182.6 1113.993-33.169-19.153v-38.304l33.169 19.151v38.306z"/><path fill="#f6f6fb" d="m1182.6 1075.687-33.169-19.151 33.169-19.147 33.177 19.147-33.177 19.151z"/><path style="mix-blend-mode:multiply" fill="url(#v)" d="M205.404 931.591h-52.267l33.176 19.153-33.176 19.154h52.267l33.17-19.154-33.17-19.153z"/><path fill="#423eaf" d="m153.137 969.898 33.176-19.154V912.44l-33.176 19.151v38.307z"/><path fill="#5652cc" d="m153.137 969.898-33.17-19.154V912.44l33.17 19.151v38.307z"/><path fill="#807dfb" d="m153.137 931.591-33.17-19.151 33.17-19.146 33.176 19.146-33.176 19.151z"/><path style="mix-blend-mode:multiply" fill="url(#w)" d="M795.063 851.542h-35.078l22.265 12.854-22.265 12.854h35.078l22.261-12.854-22.261-12.854z"/><path fill="#423eaf" d="m759.985 877.25 22.265-12.854v-25.707l-22.265 12.853v25.708z"/><path fill="#5652cc" d="m759.985 877.25-22.261-12.854v-25.707l22.261 12.853v25.708z"/><path fill="#807dfb" d="m759.985 851.542-22.261-12.853 22.261-12.85 22.265 12.85-22.265 12.853z"/><path d="m729.937 1185.8-150.19-86.713a14.055 14.055 0 0 0-12.675.001l-41.54 23.984c-3.486 2.012-3.486 5.304-.002 7.317l142.778 82.433v5.78h13.414v-.01a13.119 13.119 0 0 0 6.673-1.49l41.545-23.986c3.485-2.012 3.483-5.304-.003-7.316Z" style="mix-blend-mode:multiply" fill="url(#x)"/><path fill="#ffd03e" d="M566.336 1091.244a14.055 14.055 0 0 0-12.674 0l-41.54 23.985c-3.487 2.012-3.486 5.303-.002 7.316l46.743 26.987 54.215-31.301Z"/><path fill="#f1f1f6" d="m716.527 1177.957-103.449-59.726-54.215 31.301 103.448 59.726a14.06 14.06 0 0 0 12.674 0l41.545-23.985c3.485-2.012 3.483-5.305-.003-7.316Z"/><path fill="#fcba06" d="M512.12 1122.545c-1.72-.994-2.59-2.3-2.61-3.61l.002 7.654.007.001c-.063 1.374.797 2.758 2.603 3.8l46.74 26.986v-7.844Z"/><path fill="url(#y)" d="m716.53 1185.273-41.545 23.986a14.06 14.06 0 0 1-12.674 0l-103.448-59.727v7.844l103.45 59.727a14.057 14.057 0 0 0 12.674 0l41.54-23.985c1.827-1.053 2.686-2.457 2.6-3.842v-7.478a4.534 4.534 0 0 1-2.597 3.475Z"/><path fill="url(#e)" d="m597.988 1135.161 82.631 47.707 5.737-3.313-82.631-47.706-5.737 3.312z"/><path fill="url(#z)" d="m583.158 1143.723 32.026 18.491 5.737-3.313-32.026-18.49-5.737 3.312z"/><path fill="url(#A)" d="m621.517 1165.87 8.041 4.642 5.737-3.312-8.041-4.642-5.737 3.312z"/><path d="m437.459 872.649-59.146-34.15c-4.882-2.819-12.87-2.819-17.755.001l-58.198 33.601c-4.883 2.82-4.882 7.43-.002 10.251l48.76 28.153v8.098h18.792v-.013a18.377 18.377 0 0 0 9.35-2.088l58.203-33.603c4.882-2.819 4.88-7.432-.004-10.25Z" style="mix-blend-mode:multiply" fill="url(#B)"/><path fill="#f1f1f6" d="M360.472 905.514c-4.883 2.82-12.872 2.818-17.756-.001l-59.145-34.15c-4.88-2.82-4.882-7.43.002-10.25l58.198-33.601c4.885-2.82 12.873-2.82 17.755-.001l59.145 34.15c4.884 2.818 4.886 7.43.005 10.25Z"/><path fill="url(#C)" d="M279.918 877.03h.01c-.089 1.926 1.116 3.864 3.646 5.324l59.145 34.15c4.882 2.819 12.872 2.818 17.755-.002l58.199-33.6c2.557-1.477 3.76-3.444 3.64-5.383v-10.476c-.107 1.771-1.31 3.523-3.637 4.867l-58.204 33.604c-4.883 2.82-12.872 2.818-17.756-.001l-59.145-34.15c-2.41-1.393-3.627-3.223-3.656-5.058Z"/><path d="M346.337 864.645c-.838-2.366.448-5.033 3.842-6.992 5.154-2.978 13.142-3.186 17.848-.47 4.698 2.713 4.33 7.332-.823 10.305a20.415 20.415 0 0 1-12.102 2.213c4.773 5.555 3.152 11.778-1.91 14.696-1.218-.714-16.149-9.329-16.149-9.329l-16.16-9.325c5.055-2.921 15.837-3.857 25.454-1.098Z" style="mix-blend-mode:multiply" fill="#d1d7f3"/><path d="M450.802 1022.914a19.297 19.297 0 0 0-1.975-2.78c-2.688-2.67 3.506-7.135 6.303-8.748.053 0-8.153-4.735-8.153-4.735l-24.103.022a10.873 10.873 0 0 1-2.026-6.296l-11.567-.005c-.003 1.886-.772 6.102-3.964 7.944a6.56 6.56 0 0 1-2.34.802c-1.636.32-3.249.704-4.81 1.156a1.084 1.084 0 0 1-.206-.035q-2.345-.674-4.797-1.154c-5.165-.779-6.227-6.465-6.215-8.743l-11.568-.003c-.002 1.884-.769 6.103-3.963 7.945a6.546 6.546 0 0 1-2.338.8c-1.638.32-3.249.701-4.81 1.155-5.326 1.147-12.302-2.007-15.082-3.623l-8.203 4.735c2.78 1.616 8.923 6.083 6.203 8.746a18.567 18.567 0 0 0-2.003 2.785 3.23 3.23 0 0 1-1.393 1.352c-3.19 1.84-10.47 2.274-13.739 2.274l-.02 6.698c3.934-.002 13.75.63 15.07 3.624a18.61 18.61 0 0 0 1.978 2.785c2.69 2.665-3.507 7.13-6.301 8.745l8.147 4.739a25.65 25.65 0 0 1 1.013-.552l-.956.552 24.092.024a10.901 10.901 0 0 1 1.975 6.252l45.455.035 11.33-6.294 14.881.012 8.207-4.733c-2.787-1.616-8.924-6.083-6.21-8.746a19.81 19.81 0 0 0 1.286-1.685l7.627.01 8.2-4.735c.007 0 .047-6.694.047-6.694-4.219.164-13.749-.633-15.072-3.63Z" style="mix-blend-mode:multiply" fill="url(#D)"/><path fill="#f5f5fa" d="M347.868 999.021c-.008-2.6-4.59-5.874-6.883-7.207l.057 19.537c2.292 1.333 6.875 4.607 6.88 7.207Z"/><path fill="#bbbfe2" d="m421.288 1011.351-.057-19.536c-2.318 1.337-6.971 4.638-6.962 7.244l.053 19.537c-.006-2.606 4.648-5.905 6.966-7.245Z"/><path fill="url(#E)" d="M366.618 1021.47c8.034-4.641 21-4.641 28.978-.003 3.963 2.303 5.949 5.316 5.961 8.337l-.06-19.54c-.009-3.015-1.995-6.03-5.956-8.336-7.981-4.636-20.944-4.636-28.98 0-4.038 2.333-6.05 5.393-6.043 8.448l.052 19.537c-.005-3.055 2.012-6.115 6.048-8.443Z"/><path fill="#ced2f4" d="m348.927 1033.559-8.147-4.735.054 19.536 8.15 4.739-.057-19.54z"/><path fill="#bbbfe2" d="m421.082 1048.36-.057-19.536-8.205 4.735.057 19.54 8.205-4.739z"/><path fill="url(#F)" d="M364.104 1049.475c1.558.45 3.162.834 4.8 1.152 5.098.766 6.197 6.323 6.204 8.659l-.054-19.538c-.01-2.337-1.11-7.89-6.205-8.656a56.871 56.871 0 0 1-4.8-1.154c-4.594-1.564-12.325 2.005-15.122 3.62l.057 19.54c2.795-1.618 10.528-5.19 15.12-3.623Z"/><path fill="url(#G)" d="M390.662 1051.42a6.494 6.494 0 0 1 2.323-.79 58.44 58.44 0 0 0 4.802-1.15c4.62-1.571 12.31 2 15.09 3.619l-.057-19.54c-2.777-1.616-10.469-5.185-15.087-3.616a59.66 59.66 0 0 1-4.803 1.15 6.553 6.553 0 0 0-2.325.79c-3.15 1.817-3.817 5.972-3.996 7.955l.058 19.535c.178-1.979.843-6.136 3.995-7.952Z"/><path fill="#f1f1f6" d="M347.081 1020.077c2.69 2.663-3.507 7.13-6.301 8.746l8.147 4.736c2.797-1.616 10.528-5.185 15.122-3.62 1.56.448 3.165.833 4.8 1.153 5.16.772 6.222 6.463 6.202 8.746h11.558c.18-1.983.846-6.138 3.996-7.954a6.553 6.553 0 0 1 2.325-.792 59.66 59.66 0 0 0 4.803-1.15c4.618-1.568 12.31 2 15.087 3.617l8.205-4.736c-2.78-1.613-8.925-6.083-6.207-8.746a19.554 19.554 0 0 0 2.01-2.784 3.215 3.215 0 0 1 1.392-1.35c3.187-1.845 10.469-2.276 13.72-2.276l.035-6.696c-4.222.166-13.75-.633-15.07-3.629a18.823 18.823 0 0 0-1.976-2.78c-2.687-2.667 3.505-7.132 6.302-8.748l-8.15-4.735c-2.797 1.613-10.529 5.187-15.12 3.62a57.375 57.375 0 0 0-4.797-1.15c-5.165-.78-6.227-6.466-6.215-8.744l-11.568-.005c-.002 1.886-.769 6.105-3.963 7.947a6.633 6.633 0 0 1-2.338.799c-1.638.32-3.249.702-4.81 1.154-5.326 1.15-12.302-2.008-15.082-3.621l-8.203 4.735c2.78 1.616 8.923 6.08 6.203 8.744a18.595 18.595 0 0 0-2.003 2.787 3.26 3.26 0 0 1-1.393 1.352c-3.19 1.84-10.47 2.274-13.739 2.274l-.02 6.696c3.934 0 13.75.63 15.07 3.626a18.702 18.702 0 0 0 1.978 2.784Zm19.48-18.15c8.036-4.635 20.999-4.635 28.98 0 7.974 4.637 7.94 12.152-.094 16.79-8.021 4.634-20.999 4.63-28.97-.004-7.982-4.64-7.94-12.15.084-16.785Z"/><path fill="#ced2f4" d="M340.78 1028.823c2.794-1.615 8.991-6.083 6.301-8.746a18.702 18.702 0 0 1-1.978-2.784c-1.32-2.996-11.136-3.626-15.07-3.626l.055 19.537a49.064 49.064 0 0 1 10.704 1.152Z"/><path fill="#bbbfe2" d="m386.667 1059.372-.058-19.534h-11.558l.057 19.537 11.559-.003z"/><path fill="url(#H)" d="m431.995 1033.204-.055-19.537c-3.251 0-10.533.431-13.72 2.276a3.215 3.215 0 0 0-1.392 1.35 19.554 19.554 0 0 1-2.01 2.785c-2.718 2.663 3.427 7.132 6.207 8.746l.017 5.61a48.345 48.345 0 0 1 10.953-1.23Z"/><path d="M745.45 726.088c-4.583-6.457-11.4-12.504-20.48-17.744-32.644-18.848-83.356-20.885-119.935-6.137l-15.632 3.703a100.595 100.595 0 0 0-12.708 6.135c-18.31 10.573-27.47 24.43-27.47 38.288 0 13.863 9.16 27.719 27.47 38.292 36.63 21.147 96.018 21.147 132.646 0 17.219-9.942 26.341-22.789 27.366-35.805.622-7.811-1.682-15.686-6.887-23.035Z" style="mix-blend-mode:multiply" fill="url(#I)"/><path fill="#807dfb" d="m571.594 670.203 53.61 44.424 66.326-38.29c-32.645-18.847-83.36-20.883-119.936-6.134Z"/><path fill="#ffd03e" d="m691.53 676.337-66.326 38.29 86.8-20.545c-4.577-6.46-11.396-12.502-20.474-17.745Z"/><path fill="#f6f6fb" d="m625.204 731.486-53.61-44.425a100.857 100.857 0 0 0-12.707 6.134c-18.313 10.576-27.476 24.432-27.476 38.291 0 13.862 9.163 27.716 27.476 38.294 36.628 21.148 96.015 21.148 132.643 0 17.222-9.944 26.341-22.79 27.37-35.81.62-7.812-1.686-15.684-6.896-23.032Z"/><path fill="url(#J)" d="M718.9 733.97c-1.026 13.02-10.148 25.866-27.37 35.81-36.628 21.148-96.015 21.146-132.643 0-17.222-9.944-26.339-22.79-27.372-35.81h-.104v16.369c0 13.857 9.163 27.715 27.476 38.286 36.628 21.147 96.015 21.147 132.643 0 17.222-9.941 26.344-22.787 27.37-35.804a31.86 31.86 0 0 0 0-4.475Z"/><path fill="#e19100" d="m712.004 710.938-86.8 20.548v-16.859l86.8-20.545v16.856z"/><path fill="#5652cc" d="m625.204 731.486-53.61-44.425v-16.858l53.61 44.424v16.859z"/><path d="M715.284 716.381a41.311 41.311 0 0 0-3.28-5.443l-86.8 20.548h26.65Z" style="mix-blend-mode:multiply" fill="url(#K)"/><path fill="none" stroke="#dae0f5" stroke-miterlimit="10" stroke-width="4" d="m955.532 1115.996-16.393-9.464c-2.226-1.285-1.947-3.53.623-5.013l15.146-8.745c2.57-1.483 6.457-1.644 8.682-.36l16.393 9.465c2.226 1.285 1.947 3.53-.623 5.013l-15.146 8.745c-2.57 1.483-6.457 1.644-8.683.36Z"/><path fill="#dae0f5" d="m995.991 1120.522 86.167 49.748-8.169 4.717-86.167-49.748 8.169-4.717zM921.468 1135.663l-16.393-9.464c-2.226-1.285-1.946-3.53.623-5.013l15.147-8.745c2.57-1.484 6.457-1.645 8.682-.36l16.393 9.465c2.226 1.285 1.947 3.529-.623 5.013l-15.146 8.744c-2.57 1.484-6.457 1.645-8.683.36ZM961.928 1140.189l51.668 29.83-8.169 4.717-51.668-29.831 8.169-4.716z"/><path fill="none" stroke="#ff826a" stroke-miterlimit="10" stroke-width="4" d="m887.404 1155.33-16.393-9.465c-2.225-1.285-1.946-3.53.624-5.013l15.146-8.745c2.57-1.483 6.457-1.644 8.682-.36l16.393 9.465c2.226 1.285 1.947 3.53-.623 5.013l-15.146 8.745c-2.57 1.483-6.457 1.644-8.683.36Z"/><path fill="#dae0f5" d="m927.864 1159.855 66.541 38.418-8.169 4.716-66.541-38.417 8.169-4.717z"/><path style="mix-blend-mode:multiply" fill="url(#f)" d="M614.635 996.798h-94.462l7.302 16.018h87.16v-16.018z"/><path style="mix-blend-mode:multiply" fill="url(#L)" d="M593.225 975.699h-88.013l.853 10.19h87.16v-10.19z"/><path fill="url(#g)" d="M499.442 960.829c-2.94-2-7.575 1.406-8.745 5.19a13.578 13.578 0 0 0 1.157 4.355s4.91 10.937 6.581 12.796c1.67 1.867 8.443 4.532 11.705 1.75 2.343-3.038-2.307-4.854-3.154-7.86-1.109-3.911-.632-7.04-1.718-9.988-.895-2.423-5.826-6.243-5.826-6.243Z"/><path fill="#131147" d="M490.977 965.267c-.005.016-.01.027-.013.043a13.708 13.708 0 0 0 1.152 4.358s4.914 10.933 6.581 12.796c1.67 1.866 8.447 4.536 11.71 1.748a4.097 4.097 0 0 0 .325-.501 2.945 2.945 0 0 1-.592 1.208c-3.262 2.783-10.036.118-11.705-1.75-1.67-1.858-6.58-12.795-6.58-12.795a13.578 13.578 0 0 1-1.158-4.356 7.346 7.346 0 0 1 .28-.751Z"/><path fill="#fff" d="M507.506 963.301c-1.434-.975-7.359-3.128-7.359-3.128a3.371 3.371 0 0 1-1.338.996c-.086.023-.169.055-.26.085-1.463.01-4.116 1.385-2.477 4.331 3.178 5.722 10.522 5.521 9.715 2.807-.548-1.822.96-3.975 1.719-5.09Z"/><path fill="url(#M)" d="M505.922 969.881c.227-.903.49-2.86-1.825-3.183-2.423-.345-5.16.776-4.937 2.197.47 2.957 6.535 1.897 6.762.986Z"/><path fill="url(#N)" d="M496.87 960.284c2.748-3.703 23.116-28.22 32.71-33.104-3.225-13.531-11.596-31.111-8.937-45.607h20.433s12.117 42.92 4.361 53.148c-5.873 7.753-31.865 27.557-41.547 33.802-3.32 0-8.221-5.363-7.02-8.24Z"/><path fill="url(#h)" d="M514.212 995.92c-3.51.576-4.525 6.23-2.77 9.783a13.619 13.619 0 0 0 3.841 2.365s11.087 4.55 13.58 4.748c2.496.205 8.034-.73 8.489-4.99-.43-2.606-2.614-3.318-5.303-4.914-3.494-2.074-6.492-5.088-9.311-6.472-2.318-1.137-8.526-.52-8.526-.52Z"/><path fill="#131147" d="M528.786 1011.675c-2.566-.2-13.976-4.878-13.976-4.878a14.696 14.696 0 0 1-3.835-2.33 8.15 8.15 0 0 0 .467 1.236 13.619 13.619 0 0 0 3.841 2.365s11.087 4.55 13.58 4.748c2.496.205 8.034-.73 8.489-4.99-.02-.087-.053-.168-.068-.26-1.177 3.509-6.15 4.303-8.498 4.109Z"/><path fill="#fff" d="M521.768 992.164c-1.712.278-7.498 2.794-7.498 2.794a3.35 3.35 0 0 1-.283 1.643c-.044.077-.086.156-.13.237-1.052 1.019-2.162 2.82 1.054 3.834 6.242 1.962 11.563-2.227 9.108-3.636-1.65-.944-2.035-3.546-2.251-4.872Z"/><path fill="url(#O)" d="M525.08 997.878c-.465-.618-1.545-2.265-3.451-.906a4.555 4.555 0 0 0-2.21 4.55c.234 1.42 4.34.37 4.498.153.153-.211 1.162-3.797 1.162-3.797Z"/><path fill="url(#P)" d="M523.152 887.387c0 19.192.195 34.15.195 50.908 0 19.164 1.465 42.924 1.261 58.987-3.082 3.815-10.908 2.857-12.558-.092-2.034-14.579-6.577-36.786-5.452-52.698-4.852-20.969-9.533-45.638-7.557-62.092 4.642 1.474 19.465 3.514 24.11 4.987Z"/><path fill="url(#Q)" d="M546.45 833.614c6.89 3.836 17.454 28.615 20.419 32.513 2.963 3.899 27.042 17.398 27.042 17.398a90.253 90.253 0 0 1-10.164 6.552c-2.775-1.55-18.795-7.677-27.555-15.783a46.407 46.407 0 0 1-10.743-15.464c-6.765-16.922 1.001-25.216 1.001-25.216Z"/><path fill="url(#R)" d="M510.651 840.674c4.058-5.079 14.034-12.167 20.567-12.65 11.109-.818 19.484 7.67 21.061 16.033 1.395 7.399-12.3 44.764-9.919 54.578-1.173 5.18-9.78 7.983-13.388 8.775-15.678 3.44-31.53 1.241-31.706-8.774-.582-33.207 7.528-52.105 13.385-57.962Z"/><path fill="#dae0f5" d="M589.194 878.484a15.182 15.182 0 0 0-13.69 0l-44.874 25.909c-3.765 2.173-3.764 5.73-.001 7.904l50.492 29.152 58.566-33.813Z"/><path fill="#f1f1f6" d="m751.435 972.153-111.748-64.517-58.566 33.813 111.748 64.517a15.189 15.189 0 0 0 13.691 0l44.878-25.91c3.764-2.173 3.762-5.73-.003-7.903Z"/><path d="M579.025 907.116c-.646-1.824.345-3.88 2.962-5.39 3.974-2.297 10.133-2.457 13.762-.363 3.622 2.091 3.34 5.653-.635 7.945a15.741 15.741 0 0 1-9.33 1.707c3.68 4.283 2.43 9.081-1.473 11.331-.94-.55-12.452-7.193-12.452-7.193l-12.46-7.19c3.897-2.252 12.21-2.974 19.626-.847Z" style="mix-blend-mode:multiply" fill="#d1d7f3"/><path fill="url(#S)" d="M530.629 912.297c-1.859-1.075-2.797-2.486-2.819-3.9l.002 8.268.008.001c-.069 1.484.86 2.98 2.811 4.105l50.49 29.15v-8.472Z"/><path fill="url(#T)" d="m751.438 980.057-44.878 25.91a15.189 15.189 0 0 1-13.69 0L581.12 941.448v8.472l111.75 64.52a15.185 15.185 0 0 0 13.69-.001l44.875-25.908c1.972-1.139 2.9-2.655 2.807-4.15v-8.079c-.083 1.366-1.01 2.717-2.805 3.754Z"/><path fill="url(#U)" d="m623.386 925.924 89.26 51.534 6.197-3.578-89.26-51.534-6.197 3.578z"/><path fill="url(#V)" d="m607.366 935.173 58.87 33.989 6.197-3.578-58.87-33.988-6.197 3.577z"/><path fill="#bc3153" d="M532.85 913.325c.454.644 1.66 7.686-3.7 8.788-2.32-1.799-1.983-8.683 3.7-8.788Z"/><path fill="#fcd1a9" d="m529.877 912.73 2.961 1.752c1.69.867 6.368.848 9.371-1.19 3.002-2.037 2.565 3.059-.651 3.922-3.223.862-3.494 2.094 1.1 3.86a12.156 12.156 0 0 1 4.857 3.438c1.38 2.034 2.545 6.17-.513 7.49-2.48 1.067-8.45-3.118-10.272-4.301-5.024-3.26-3.725-4.132-6.505-6.169-2.774-2.042-3.469-2.111-3.469-2.111Z"/><path fill="url(#W)" d="M517.822 840.937c-3.297-1.361-9.241-2.22-12.78 7.988-2.008 5.791-3.717 26.107-1.113 36.38 3.566 14.048 12.374 28.582 25.221 36.809-1.672-2.86.67-8.058 3.7-8.789-8.853-10.057-15.063-23.148-15.063-29.587 0-10.644 1.959-26.92 2.738-30.186 1.643-6.866.553-11.272-2.703-12.615Z"/><path fill="#fcd1a9" d="M529.82 813.276c-.408-3.6 12.032 3.731 11.531 8.486-.407 3.866-1.533 7.27 2.378 9.69 1.35 1.077 5.961 8.595-1.134 8.674-10.148.124-12.854-2.661-20.188-8.947 4.375-2.471 8.73-6.23 7.412-17.903Z"/><path fill="#fcd1a9" d="m526.89 811.147 5.053-7.11h21.996v13.24c0 7.316-4.925 13.24-10.995 13.24a12.023 12.023 0 0 1-11.658-11.889l-2.67-.922Z"/><path fill="#f2c39d" d="M542.432 834.059c-5.256 0-11.763-8.443-11.146-15.425a12.688 12.688 0 0 0 11.215 11.872 9.546 9.546 0 0 0 1.228.945 3.278 3.278 0 0 1 .366.371c0 1.067-.708 2.237-1.663 2.237Z"/><path fill="#20196f" d="M552.655 798.059c2.011-.35 2.195-2.023-5.96-4.844-4.738-2.326-11.453-3.038-15.8-.348-5.89 3.646-7.667 9.005-6.61 15.73 1.05 6.73 5.362 13.126 5.362 13.126.651.658.747-2.445.216-4.739a4.436 4.436 0 0 1-.767-1.967c-1.559-6.835 2.623-5.815 3.196-5.239 1.29.531-1.206 6.186 2.574 5.621 1.83-.268 1.58-5.375 1.572-7.17a7.803 7.803 0 0 1 .825.216c3.12 1.734 13.726 2.994 7.838-.69 4.102 0 9.694 1.894 11.582-.708 2.242-3.1-1.35-6.476-4.028-8.988Z"/><path style="mix-blend-mode:multiply" fill="url(#i)" d="M780.649 1120.466h65.865v13.794h-65.865z"/><path style="mix-blend-mode:multiply" fill="url(#X)" d="M746.116 1140.373h70.818v13.79h-70.818z"/><path fill="url(#j)" d="M788.588 1130.007c0-10.832-6.868-11.144-6.868-11.144s-3.815.387-9.94-1.913c-7.712-2.897-14.182-2.119-9.485 6.545a3.43 3.43 0 0 0 .162.321 4.255 4.255 0 0 0 1.519 1.333l15.008 8.8c2.285 1.309 9.553-1.713 9.604-3.942Z"/><path fill="#131147" d="M788.548 1129.035c-.13 2.225-7.295 5.188-9.564 3.893l-15.008-8.8a13.714 13.714 0 0 1-2.115-1.54c.143.3.259.582.434.907a3.43 3.43 0 0 0 .162.322 4.255 4.255 0 0 0 1.519 1.332l15.008 8.8c2.137 1.225 8.652-1.347 9.507-3.512a1.983 1.983 0 0 0 .062-.436 6.79 6.79 0 0 0-.005-.966Z"/><path fill="#fcd1a9" d="M785.796 1117.438a30.372 30.372 0 0 0-4.692.796c-1.475-.38-6.345-.556-9.531-1.497-.947-.278-1.84-.874-2.844-.113-1.26 1.548 2.018 5.33 8.78 8.246a4.045 4.045 0 0 0 5.25-.365 4.849 4.849 0 0 1 1.688-1.924 4.432 4.432 0 0 1 1.621-.684.597.597 0 0 1 .022-.147s.442-4.313-.294-4.313Z"/><path fill="#20196f" d="M782.402 1046.218c3.013-9.24 1.624-19.91-.612-30.635-6.783.122-19.624-3.673-26.407-3.552 2.526 20.39 8.213 38.312 11.606 58.06 3.643 19.195 7.967 33.288 11.553 49.266 1.31 2.976 7.697 1.632 7.697-.15.95-14.713.313-31.776-4.044-48.746.304-7.676-1.01-16.602.207-24.243Z"/><path fill="url(#Y)" d="M754.382 1149.915c0-10.834-6.863-11.145-6.863-11.145a28.344 28.344 0 0 1-10.15-2.125c-7.712-2.898-13.977-1.906-9.283 6.758.05.102.106.207.168.322a4.2 4.2 0 0 0 1.521 1.331l15.006 8.8c2.285 1.31 9.55-1.712 9.601-3.94Z"/><path fill="#131147" d="M754.347 1148.941c-.132 2.225-7.297 5.19-9.566 3.899l-15.005-8.805a13.954 13.954 0 0 1-2.118-1.54c.14.297.259.585.429.908.048.102.105.207.167.322a4.2 4.2 0 0 0 1.522 1.331l15.005 8.8c2.134 1.224 8.646-1.345 9.507-3.513a2.16 2.16 0 0 0 .065-.438 7.657 7.657 0 0 0-.006-.964Z"/><path fill="#fcd1a9" d="M751.593 1137.343a30.286 30.286 0 0 0-4.694.799c-1.47-.385-6.343-.556-9.53-1.497-.949-.278-1.842-.875-2.843-.112-1.257 1.545 2.02 5.33 8.78 8.246a4.046 4.046 0 0 0 5.246-.366 4.847 4.847 0 0 1 1.695-1.925 4.375 4.375 0 0 1 1.618-.685.79.79 0 0 1 .02-.146s.444-4.313-.292-4.313Z"/><path fill="url(#Z)" d="M764.378 1059.976c5.778-23.219 18.814-9.923 17.412-44.393-6.712-.984-30.688 14.176-37.403 13.19-3.93 24.99-3.116 40.423-2.992 60.457.453 19.535 1.732 32.898 2.66 49.237.807 3.154 7.959 2.909 7.959 1.013 3.34-14.356 6.002-31.868 4.47-49.32 2-9.67 5.72-19.92 7.894-30.184Z"/><path fill="url(#aa)" d="M778.331 1051.385c-10.902 6.742-28.141 10.824-39.21 5.931-.336-17.855 7.533-51.517 5.044-59.498-.844-2.708-4.13-.448-5.38-3.107-3.24-6.897-5.174-21.237-5.174-23.416 0-4.637 3.725-9.45 7.578-12.012 5.274-3.514 12.76-8.212 19.368-6.924 14.423 4.045 21.337 39.16 25.665 87.261-1.071 4.878-2.395 8.366-7.89 11.765Z"/><path fill="#fcd1a9" d="M758.1 955.623c-4.423-2.955-4.153-5.33-3.67-9.596a20.903 20.903 0 0 0 1.028-7.362c-.354-9.441-6.666-17.375-14.015-16.592-14.812 1.577-11.879 9.291-11.526 18.731.327 8.746 4.522 14.613 11.191 15.38a4.551 4.551 0 0 1-2.169 4.117c4.959 2.723 12.656 1.255 15.758-.027 3.027-1.246 5.501-2.635 3.402-4.65ZM695.876 1010.468c-1.302.116-2.254-3.02-4.39-3.283-2.135-.26-6.653-.956-6.555.349.085 1.094 3.937.904 3.414 1.469-1.508 1.624-5.133.016-6.01-1.375-.883-1.395-2.143-1.504-2.016-.089.125 1.413.95 7.747 6.062 9.169a31.301 31.301 0 0 0 11.06.567Z"/><path fill="url(#ab)" d="M695.605 1017.82s-4.555-3.003-.368-8.141c14.773-2.635 33.143-19.296 37.637-39.101 2.733-7.72 11.39-2.331 9.594 7.48-2.83 15.454-20.817 39.024-46.863 39.763Z"/><path fill="#20196f" d="M727.948 934.835c.27-5.48 4.71-14.694 14.487-14.004 9.446.665 13.47 7.374 13.57 15.56.079 6.423 5.814 24.595 20.24 23.54-6.173 11.413-50.199 13.452-48.297-25.096Z"/></g></svg>