<svg xmlns="http://www.w3.org/2000/svg" xmlns:xlink="http://www.w3.org/1999/xlink" viewBox="0 0 200 200"><defs><linearGradient id="j" x1="31.935" x2="118.825" y1="118.059" y2="118.059" xlink:href="#a"/><linearGradient id="b" x1="74.194" x2="104.728" y1="38.857" y2="159.695" gradientUnits="userSpaceOnUse"><stop offset="0" stop-color="#131f77"/><stop offset=".043" stop-color="#2c3483"/><stop offset=".137" stop-color="#5c5b9c"/><stop offset=".235" stop-color="#877eb1"/><stop offset=".338" stop-color="#ab9cc3"/><stop offset=".444" stop-color="#c9b4d1"/><stop offset=".557" stop-color="#dfc7dd"/><stop offset=".679" stop-color="#f0d4e5"/><stop offset=".816" stop-color="#f9dcea"/><stop offset="1" stop-color="#fcdeeb"/></linearGradient><linearGradient id="c" x1="104.85" x2="143.83" y1="66.62" y2="117.293" xlink:href="#a"/><linearGradient id="d" x1="74.283" x2="131.134" y1="60.394" y2="60.394" xlink:href="#a"/><linearGradient id="e" x1="-112.152" x2="-86.181" y1="210.307" y2="210.307" gradientTransform="scale(-1 1) rotate(-58.89 -206.651 239.175)" xlink:href="#a"/><linearGradient id="f" x1="-48.376" x2="-21.294" y1="339.809" y2="339.809" gradientTransform="scale(-1 1) rotate(-18.651 -690.916 683.412)" xlink:href="#a"/><linearGradient id="g" x1="267.625" x2="285.271" y1="234.317" y2="234.317" gradientTransform="rotate(51.081 318.313 68.082)" xlink:href="#a"/><linearGradient id="h" x1="98.932" x2="121.711" y1="196.512" y2="196.512" gradientTransform="scale(-1 1) rotate(4.267 781.848 -1585.735)" xlink:href="#a"/><linearGradient id="i" x1="89.397" x2="100.857" y1="45.156" y2="45.156" xlink:href="#a"/><linearGradient id="a" x1="82.062" x2="65.322" y1="58.308" y2="139.714" gradientUnits="userSpaceOnUse"><stop offset="0" stop-color="#fff"/><stop offset=".256" stop-color="#c2c2c2"/><stop offset=".845" stop-color="#292929"/><stop offset="1"/></linearGradient><linearGradient id="k" x1="139.159" x2="152.542" y1="101.747" y2="101.747" xlink:href="#a"/><linearGradient id="l" x1="108.048" x2="158.89" y1="74.865" y2="74.865" xlink:href="#a"/><linearGradient id="m" x1="149.96" x2="163.627" y1="88.089" y2="88.089" xlink:href="#a"/><linearGradient id="n" x1="102.191" x2="164.745" y1="136.017" y2="136.017" xlink:href="#a"/><linearGradient id="o" x1="49.937" x2="58.84" y1="65.262" y2="65.262" xlink:href="#a"/><linearGradient id="p" x1="57.031" x2="61.496" y1="62.795" y2="62.795" xlink:href="#a"/><linearGradient id="q" x1="56.729" x2="61.968" y1="65.432" y2="65.432" xlink:href="#a"/><linearGradient id="r" x1="109.182" x2="155.917" y1="94.269" y2="94.269" gradientTransform="rotate(-26.839 121.896 229.479)" xlink:href="#a"/><linearGradient id="s" x1="137.704" x2="157.148" y1="79.164" y2="79.164" gradientTransform="rotate(-26.839 121.896 229.479)" xlink:href="#a"/></defs><g data-name="Layer 1"><g data-name="Building Web"><path fill="url(#b)" d="M177.458 136.017c-3.678 9.984-17.644 15.199-17.644 15.199H27.852c-11.217-3.072-12.43-10.894-8.307-20.232a56.044 56.044 0 0 1 6.104-10.267c4.972-6.832 9.176-15.745.647-24.901-15.745-16.897-6.71-41.272 13.643-44.748a21.394 21.394 0 0 1 12.248 1.556 43.416 43.416 0 0 1 10.207 6.387c8.913 7.114 13.158-4.144 18.696-13.966 3.254-5.801 6.993-11.097 12.39-11.824 16.755-2.223 18.816 5.053 31.57 16.492a38.58 38.58 0 0 0 6.084 4.508 37.844 37.844 0 0 0 4.507 2.284c12.51 5.214 22.819 1.192 26.356 11.399 5.437 15.664-16.19 15.684 2.748 36.26a93.507 93.507 0 0 1 10.591 13.096c4.164 6.67 4.629 11.905 2.122 18.757Z"/><path fill="url(#a)" style="mix-blend-mode:overlay" d="M130.224 101.496c-3.577 3.537-8.428 5.497-13.299 6.81a68.578 68.578 0 0 1-37.351-.484c-5.275-1.577-10.43-3.8-15.927-4.164a24.213 24.213 0 0 0-19.848 8.469c-2.283 2.688-3.92 5.861-6.103 8.63a28.131 28.131 0 0 1-18.15 10.227 56.044 56.044 0 0 1 6.103-10.267c4.972-6.832 9.176-15.745.647-24.901-15.745-16.897-6.71-41.272 13.643-44.748a21.394 21.394 0 0 1 12.248 1.556 15.347 15.347 0 0 0-.667 3.173 19.668 19.668 0 0 0 2.729 12.248c4.305 6.61 12.733 9.176 20.575 9.965 5.98.6 12.362.458 17.864-2.197 3.921-1.892 7.016-5.094 10.882-7.079 4.452-2.285 9.834-4.056 14.761-3.707 5.24.372 11.09 2.703 14.783 6.821a14.818 14.818 0 0 1 3.382 8.142c.915 7.47-.764 16.06-6.272 21.506Z" opacity=".7"/><path fill="url(#c)" style="mix-blend-mode:overlay" d="M175.336 117.26a12.741 12.741 0 0 1-3.213-1.05 43.166 43.166 0 0 1-6.953-4.75 35.516 35.516 0 0 0-13.481-6.63c-4.932-1.07-10.349-.545-14.573 2.224-5.942 3.9-8.792 11.58-15.037 14.976-4.386 2.406-9.661 2.244-14.654 1.961-8.145-.445-17.442-1.738-21.97-8.55-2.546-3.84-2.97-8.71-2.809-13.319a23.473 23.473 0 0 1 1.435-8.125c2.446-5.902 8.55-9.48 14.674-11.319s12.592-2.364 18.615-4.446c6.225-2.143 11.985-6.064 15.38-11.682a20.46 20.46 0 0 0 2.89-10.046c12.512 5.215 22.82 1.193 26.357 11.4 5.437 15.664-16.19 15.684 2.748 36.26a93.507 93.507 0 0 1 10.591 13.096Z" opacity=".7"/><path fill="url(#d)" style="mix-blend-mode:overlay" d="M131.134 54.22c-1.294.081-2.587.122-3.88.243a31.85 31.85 0 0 0-26.64 21.323c-1.111 3.376-1.758 7.175-4.366 9.58-2.566 2.365-6.386 2.73-9.883 2.567a18.658 18.658 0 0 1-6.993-1.455 8.733 8.733 0 0 1-4.79-5.093c-.748-2.506 0-5.215 1.212-7.519a11.883 11.883 0 0 1 3.073-3.92c3.031-2.345 7.6-2.588 9.822-5.7 1.577-2.204 1.456-5.154 1.253-7.863a13.278 13.278 0 0 0-1.192-5.477c-1.091-2.021-3.113-3.335-5.073-4.487a26.986 26.986 0 0 0-2.587-1.374c3.254-5.801 6.993-11.097 12.39-11.824 16.755-2.223 18.816 5.053 31.57 16.492a38.58 38.58 0 0 0 6.084 4.508Z" opacity=".7"/><path fill="#131f77" d="M171.514 127.24c-.742-1.37-1.772-6.234-2.795-5.746-.737.345-3.044 3.026-4.197 5.813a7.274 7.274 0 0 0-.65 3.17c.334 4.97 1.992 7.148 4.184 8.074 1.97.845 3.124.406 4.665 1.038a4.39 4.39 0 0 1 .503.24.811.811 0 0 1 .215.143c1.634 1.047 2.265 3.373 6.272 3.82 2.67.293 4.988-1.679 6.168-3.236.667-.89.966-1.628.732-1.73-.244-.097-.838.176-1.578.494-1.214.503-2.815 1.126-3.877.363-1.709-1.218-2.536-.69-1.564-1.62.977-.92 1.456.539 3.65.046a3.181 3.181 0 0 0 .763-.303 8.867 8.867 0 0 0 2.666-2.511 6.411 6.411 0 0 0 1.481-3.243c-.13-1.425-1.763 1.422-4.067.95a13.305 13.305 0 0 1-1.433-.38c-.962-.337-1.396-.748-1.21-1.175a.932.932 0 0 1 .268-.363c.871-.74 6.83.376 6.8-2.427-.037-2.814-1.006-5.18-1.878-4.037-.883 1.148-2.217 3.185-3.041 2.436-.82-.765-.5-1.66 1.043-2.376 1.554-.724 3.075-.624 3.083-1.775a11.386 11.386 0 0 0-.215-1.589 23.852 23.852 0 0 0-1.663-5.628c-.513-1.064-1.119-1.759-1.785-1.629a37.198 37.198 0 0 0-6.94 2.24 3.52 3.52 0 0 0-1.546 1.047c-.468 1.028 2.416 2.295 1.921 3.682-.5 1.377-1.706 2.276-2.52-.641-.826-2.91-1.871-4.571-3.532-1.65-1.653 2.931-.106 5.234.802 6.62.924 1.39.016 3.255-.725 1.884Z"/><path fill="#fff" d="m181.93 117.99-.013.051c-.75 2.744-1.632 5.697-2.758 8.697a59.84 59.84 0 0 1-6.438 12.85 42.235 42.235 0 0 1-7.348 8.33.177.177 0 0 0-.06.066.42.42 0 0 0-.05.416.34.34 0 0 0 .068.088.404.404 0 0 0 .57.043c.025-.03.056-.049.081-.078a42.81 42.81 0 0 0 7.457-8.481 59.01 59.01 0 0 0 5.928-11.512l.138-.342c.362-.92.69-1.848 1.007-2.77.866-2.456 1.581-4.878 2.204-7.145a.407.407 0 0 0-.287-.5.29.29 0 0 0-.132-.006.39.39 0 0 0-.368.294Z"/><path fill="url(#e)" style="mix-blend-mode:overlay" d="M177.778 126.325a6.65 6.65 0 0 1-5.012 3.039c-2.838.209-5.488-1.5-8.244-2.057a7.274 7.274 0 0 0-.65 3.17c.334 4.97 1.992 7.148 4.184 8.074 1.97.845 3.124.406 4.665 1.038a42.235 42.235 0 0 1-7.348 8.33.177.177 0 0 0-.06.065c.217.17.448.316.67.469a42.81 42.81 0 0 0 7.456-8.481c1.634 1.047 2.265 3.373 6.272 3.82 2.67.293 4.988-1.679 6.168-3.236-.28-.418-.565-.819-.846-1.236-1.214.503-2.815 1.126-3.877.363-1.708-1.218-2.536-.69-1.564-1.62.977-.92 1.456.539 3.65.046a3.181 3.181 0 0 0 .763-.303c-.667-.987-1.338-1.957-2.005-2.943-1.315-1.942-2.69-4.149-2.633-6.403a5.345 5.345 0 0 1 .136-1.057 5.196 5.196 0 0 1 1.009-2.055 11.042 11.042 0 0 1 4.13-3.051 11.168 11.168 0 0 1 2.86-.981 23.852 23.852 0 0 0-1.663-5.628c-.513-1.064-1.119-1.759-1.785-1.629a37.198 37.198 0 0 0-6.94 2.24 10.53 10.53 0 0 0 .358 1.045 29.5 29.5 0 0 1 1.19 3.134 7.503 7.503 0 0 1-.884 5.847Z"/><path fill="#131f77" d="M165.074 148.815a6.836 6.836 0 0 1 3.347-.304 50.437 50.437 0 0 1 8.25 1.52 25.037 25.037 0 0 1 4.145 1.39c2.017.982 7.199.136 9.968-.41 1.097-.234 1.816-.406 1.816-.406s-4.644-5.945-11.249-7.787c-5.486-1.521-13.077 3.615-15.492 5.403-.51.366-.785.594-.785.594Z"/><path fill="#fff" d="M164.655 148.91a.42.42 0 0 0 .505.32l.011-.005.009.003c1.063-.273 2.15-.5 3.241-.717.495-.097.99-.194 1.491-.28a61.193 61.193 0 0 1 4.802-.644 36.789 36.789 0 0 1 4.836-.16c.444.027.88.052 1.32.087a15.562 15.562 0 0 1 3.426.666.139.139 0 0 0 .089-.263 14.556 14.556 0 0 0-2.646-.657 28.378 28.378 0 0 0-2.173-.242 35.321 35.321 0 0 0-4.893.018 54.04 54.04 0 0 0-4.869.508c-1.32.195-2.63.414-3.945.678l-.883.183a.424.424 0 0 0-.321.505Z"/><path fill="url(#f)" style="mix-blend-mode:overlay" d="M164.655 148.91a.42.42 0 0 0 .505.32l.011-.005.009.003c1.063-.273 2.15-.5 3.241-.717a50.437 50.437 0 0 1 8.25 1.52c.21-.118.42-.236.624-.365a23.18 23.18 0 0 1 3.575-2.152 5.453 5.453 0 0 1 .747-.229c.04-.005.082-.02.122-.025a8.593 8.593 0 0 1 4.864.793 9.225 9.225 0 0 1 4.18 2.958c1.098-.234 1.817-.406 1.817-.406s-4.644-5.945-11.249-7.787c-5.486-1.521-13.077 3.615-15.492 5.403l-.883.184a.424.424 0 0 0-.321.505Z"/><path fill="#131f77" d="M165.38 148.73a4.454 4.454 0 0 0-.57-2.115 32.875 32.875 0 0 0-2.791-4.7 16.314 16.314 0 0 0-1.785-2.219c-1.056-1.01-1.708-4.368-2-6.184-.104-.724-.161-1.202-.161-1.202a16.18 16.18 0 0 1 7.298 5.118c2.168 3.01.743 8.808.195 10.688-.108.394-.186.614-.186.614Z"/><path fill="#fff" d="M165.417 149.007a.274.274 0 0 1-.31-.236v-.008l-.003-.004a39.08 39.08 0 0 0-.294-2.144c-.052-.324-.104-.649-.165-.974a39.846 39.846 0 0 0-.69-3.08 23.979 23.979 0 0 0-.995-2.992c-.116-.265-.23-.526-.35-.787a10.143 10.143 0 0 0-1.18-1.944.09.09 0 0 1 .14-.113 9.467 9.467 0 0 1 .999 1.468c.233.419.44.842.638 1.274a23.021 23.021 0 0 1 1.094 2.994 35.22 35.22 0 0 1 .788 3.09c.179.852.341 1.702.477 2.565l.087.581a.276.276 0 0 1-.236.31Z"/><path fill="url(#g)" style="mix-blend-mode:overlay" d="M165.417 149.007a.274.274 0 0 1-.31-.236v-.008l-.003-.004a39.08 39.08 0 0 0-.294-2.144 32.875 32.875 0 0 0-2.791-4.7c.025-.154.05-.309.082-.463a15.107 15.107 0 0 0 .509-2.67 3.544 3.544 0 0 0-.03-.509c-.005-.025-.006-.054-.011-.08a5.598 5.598 0 0 0-1.583-2.794 6.011 6.011 0 0 0-2.751-1.887c-.105-.724-.162-1.202-.162-1.202a16.18 16.18 0 0 1 7.298 5.118c2.168 3.01.743 8.809.195 10.688l.087.581a.276.276 0 0 1-.236.31Z"/><path fill="#f851a7" d="M174.76 140.518a3.624 3.624 0 0 1-1.24 2.16 10.384 10.384 0 0 1 2.817-.546c.203-2.199-1.664-3.29-1.086-4.62.322-.742 3.228-.114 2.956 2.187a3.947 3.947 0 0 1-1.457 2.41 44.278 44.278 0 0 1 2.378-.034c.583-1.843-.811-3.123-.07-4.153.414-.574 2.782.503 2.12 2.42a3.39 3.39 0 0 1-1.591 1.735c.597.003 1.22.003 1.865-.007 1.472-1.11 1.4-2.93 2.674-3.196.763-.16 1.888 2.474-.073 3.542a3.781 3.781 0 0 1-2.671.207c-.629.008-1.238.009-1.822.005a2.894 2.894 0 0 1 1.265.789c1.356 1.507-.405 3.422-1.01 3.054-1.083-.659-.3-2.377-1.55-3.846a23.556 23.556 0 0 0-2.528.113 3.993 3.993 0 0 1 2.393 1.601c1.207 1.978-1.173 3.76-1.775 3.22-1.102-.987.214-2.81-1.011-4.77a7.017 7.017 0 0 0-3.046 1.118 3.89 3.89 0 0 1 2.754.883c1.587 1.519-.16 3.731-.844 3.383-1.251-.639-.485-2.635-2.094-4.133a6.865 6.865 0 0 0-.983.883 16.804 16.804 0 0 1-1.68 1.587 3.062 3.062 0 0 1 2.037.619c1.393 1.187.046 3.11-.539 2.854-1.037-.456-.56-2.061-1.806-3.224a18.514 18.514 0 0 1-2.607 1.72 2.084 2.084 0 0 1 1.102.45c1.075.916.036 2.4-.416 2.202-.76-.334-.468-1.469-1.262-2.351-.521.257-.856.388-.898.404a.275.275 0 0 1-.345-.134l-.01-.026a.275.275 0 0 1 .158-.356 14.164 14.164 0 0 0 1.672-.826c-.092-1.387-1.371-1.834-1.17-2.708.11-.48 1.922-.429 2.015.98a2.374 2.374 0 0 1-.577 1.574 17.908 17.908 0 0 0 2.893-2.121c-.098-1.827-1.78-2.405-1.52-3.546.144-.623 2.491-.555 2.613 1.27a2.871 2.871 0 0 1-.532 1.742c.157-.156.313-.316.466-.484a6.913 6.913 0 0 1 2.24-1.642c.243-2.135-1.562-3.186-1.007-4.462.305-.704 3.06-.109 2.802 2.073Z"/><path fill="#3549aa" d="M8.626 136.61c3.195 4.408 11.877 11.44 17.231 13.997a.237.237 0 0 0 .208.01c.013 0 .013 0 .024-.014a.275.275 0 0 0 .151-.399.611.611 0 0 1-.045-.087c-.045-.087-.104-.186-.164-.297l-.001-.013c-.015-.025-.017-.05-.044-.074-.09-.174-.183-.374-.302-.585l-.001-.012a88.028 88.028 0 0 0-1.662-2.897v-.013a52.804 52.804 0 0 0-5.788-8.01l-.013.001c-2.308-2.564-4.915-4.629-7.548-5.155-3.905-.78-3.947.914-2.046 3.548Z"/><path fill="#3549aa" d="M20.618 132.294a68.95 68.95 0 0 0 3.402 13.932l.001.013c.261.73.531 1.406.812 2.056v.013c.316.764.638 1.45.969 2.07l.014.013a.237.237 0 0 0 .032.088.255.255 0 0 0 .217.138.097.097 0 0 0 .103.006.286.286 0 0 0 .228-.237c.037-.196.071-.431.116-.693v-.013c.035-.209.07-.444.102-.691v-.013c.085-.588.175-1.278.273-2.047a53.614 53.614 0 0 0 .197-11.542c-.369-3.212-1.222-6.17-2.925-8.056-3.449-3.834-4.192-.474-3.54 4.963Z"/><path fill="#3549aa" d="M25.87 150.258a.365.365 0 0 0 .012.166.29.29 0 0 0 .207.179.185.185 0 0 0 .08.02.325.325 0 0 0 .2-.08 28.774 28.774 0 0 0 5.537-6.932 6.851 6.851 0 0 0 .846-3.367c-.171-2.285-1.161-1.889-2.358-.276a31.326 31.326 0 0 0-3.507 6.96c-.344.93-.638 1.83-.861 2.647l.002.025a.385.385 0 0 1-.042.133c-.038.183-.077.354-.116.525Z"/><path fill="#fff" d="M11.556 136.477a.162.162 0 0 1 .224-.045c.104.07 10.204 6.845 13.917 13.182-.082-2.987-.517-15.339-2.205-18.497a.161.161 0 0 1 .066-.217.156.156 0 0 1 .218.065c1.79 3.352 2.187 16.263 2.25 18.853 1.038-1.474 5.013-7.206 5.16-8.77a.163.163 0 0 1 .174-.144.16.16 0 0 1 .145.174c-.175 1.877-5.25 8.975-5.466 9.276a.16.16 0 0 1-.118.067l-.008-.002a.196.196 0 0 1-.027.004c-.02.002-.029-.02-.046-.025-.008-.004-.017-.002-.025-.007l-.006-.01c-.027-.015-.062-.015-.077-.043-3.375-6.422-14.024-13.566-14.132-13.637a.163.163 0 0 1-.044-.224Z"/><path fill="url(#h)" style="mix-blend-mode:overlay" d="M8.626 136.61c3.195 4.408 11.877 11.44 17.231 13.997a.237.237 0 0 0 .208.01.097.097 0 0 0 .103.006.325.325 0 0 0 .201-.08 28.774 28.774 0 0 0 5.537-6.932 5.576 5.576 0 0 1-.047-1.661 1.632 1.632 0 0 0-.694-1.51c-.134-.068-.278-.096-.399-.164a1.232 1.232 0 0 1-.371-.308 31.326 31.326 0 0 0-3.508 6.96 53.614 53.614 0 0 0 .197-11.541 3.535 3.535 0 0 1-1.978-.382c-.095-.057-.176-.115-.258-.174a3.262 3.262 0 0 1-.387-.345c-.433-.433-.781-.949-1.203-1.408a2.338 2.338 0 0 0-2.365-.908 1.846 1.846 0 0 0-.275.124 68.95 68.95 0 0 0 3.402 13.932 52.804 52.804 0 0 0-5.787-8.01l-.013.001a3.879 3.879 0 0 1-1.9-.207 7.25 7.25 0 0 1-2.026-.868 7.34 7.34 0 0 0-1.784-1.235 3.247 3.247 0 0 0-1.65.032 12.013 12.013 0 0 0-2.234.67Z" opacity=".7"/><path fill="#131f77" d="m109.247 97.046-.081-.4.99-.202.081.4Zm-.48-2.382-.4-1.982.99-.201.4 1.981Zm-.8-3.964-.4-1.98.99-.2.401 1.979Zm-.799-3.963-.399-1.982.991-.197.399 1.981Zm-.8-3.964-.398-1.981.99-.198.4 1.982Zm-.797-3.959-.4-1.982.99-.2.401 1.98Zm-.799-3.963-.4-1.982.99-.201.4 1.981Zm-.8-3.964-.398-1.98.99-.2.4 1.979Zm-.799-3.963-.399-1.982.991-.197.4 1.982Zm-.8-3.963-.398-1.982.991-.197.399 1.981Zm-.797-3.96-.4-1.982.99-.2.401 1.98Zm-.799-3.965-.399-1.982.991-.197.399 1.981Zm-.8-3.962-.398-1.98.99-.2.4 1.98Zm-.799-3.963-.398-1.982.99-.197.4 1.982ZM91.109 46.138l-.975-.264.267-.976.975.265-.267.975zM83.498 74.168l-.976-.265.544-2.001.975.264Zm1.087-4.003-.975-.265.544-2.003.975.265Zm1.088-4.005-.975-.264.543-2.002.975.265Zm1.087-4.005-.975-.264.544-2.002.975.265Zm1.088-4.003-.975-.264.543-2.003.976.264Zm1.088-4.004-.975-.265.543-2.001.975.264Zm1.088-4.005-.975-.265.543-2.001.975.264ZM81.714 76.88l.265-.976.975.265-.265.975z"/><path fill="#f851a7" d="M100.857 43.993a5.73 5.73 0 0 1-11.46 0 5.971 5.971 0 0 1 .1-1.05 5.721 5.721 0 0 1 10.228-2.345 5.665 5.665 0 0 1 1.132 3.395Z"/><circle cx="95.124" cy="43.998" r="2.842" fill="#131f77"/><path fill="url(#i)" style="mix-blend-mode:overlay" d="M100.857 43.993a5.73 5.73 0 0 1-11.46 0 5.971 5.971 0 0 1 .1-1.05 4.421 4.421 0 0 1 2.79-.607c1.233.081 2.446.485 3.679.667a3.758 3.758 0 0 0 2.445-.303 2.793 2.793 0 0 0 1.314-2.102 5.665 5.665 0 0 1 1.132 3.395Z" opacity=".7"/><path fill="#131f77" d="M118.825 89.874v56.33a4.667 4.667 0 0 1-.364 1.839 4.928 4.928 0 0 1-4.608 3.173H36.907c-.182 0-.364-.02-.546-.02a5.029 5.029 0 0 1-4.426-4.992v-56.33a4.969 4.969 0 0 1 4.972-4.972h76.946a4.884 4.884 0 0 1 4.89 4.264 2.115 2.115 0 0 1 .082.708Z"/><path fill="#f851a7" d="M118.824 89.874v5.313H31.927v-5.313A4.97 4.97 0 0 1 36.9 84.9h76.949a4.898 4.898 0 0 1 4.899 4.258 2.324 2.324 0 0 1 .075.716Z"/><path fill="url(#j)" style="mix-blend-mode:overlay" d="M118.825 143.111v3.093a4.667 4.667 0 0 1-.364 1.839 4.928 4.928 0 0 1-4.608 3.173H36.907c-.182 0-.364-.02-.546-.02a5.029 5.029 0 0 1-4.426-4.992v-8.772a15.81 15.81 0 0 1 5.013-1.96 27.456 27.456 0 0 1 1.778-.324 28.13 28.13 0 0 1 2.89-.324c1.78-.12 3.578-.141 5.377-.12.424 0 .869 0 1.293.02a76.77 76.77 0 0 0 12.774-.284 26.578 26.578 0 0 0 4.972-1.192c.324-.121.647-.243.95-.364a19.095 19.095 0 0 0 9.277-7.983 14.616 14.616 0 0 0 1.112-2.345 14.788 14.788 0 0 0 .687-2.506 13.592 13.592 0 0 0-.687-7.175 13.292 13.292 0 0 0-3.436-5.215 9.372 9.372 0 0 0-.708-.606 10.299 10.299 0 0 0-3.577-1.88c-2.971-.91-6.144-.525-9.196-.748a26.43 26.43 0 0 1-4.386-.667 38.535 38.535 0 0 1-8.065-2.93c-2.304-1.092-4.547-2.345-6.73-3.639a168.366 168.366 0 0 1-3.173-2 29.154 29.154 0 0 1-6.165-5.235v-.081a4.969 4.969 0 0 1 4.972-4.972h76.946a4.884 4.884 0 0 1 4.89 4.264 18.973 18.973 0 0 0-2.93 1.355 26.54 26.54 0 0 0-6.063 4.669 25.028 25.028 0 0 0-6.367 10.954 16.203 16.203 0 0 0-.566 7.276c.04.263.101.526.162.789.687 3.153 2.425 5.962 4.163 8.67.263.425.526.85.809 1.274.364.566.707 1.132 1.091 1.718.162.262.324.545.506.808.222.364.444.708.667 1.071.424.667.849 1.314 1.273 1.981.162.263.344.546.505.809.506.808 1.031 1.616 1.536 2.425.04.06.061.101.101.162a104.112 104.112 0 0 1 2.486 4.062 30.163 30.163 0 0 1 2.345 4.891 10.503 10.503 0 0 1 .364 1.031Z" opacity=".7"/><path fill="#fff" d="M39.164 103.756h37.775a.442.442 0 0 1 .442.442v39.895a.442.442 0 0 1-.442.442H39.164a.442.442 0 0 1-.442-.442v-39.895a.442.442 0 0 1 .442-.442ZM83.033 107.326h17.816v2.688H83.033zM83.033 113.85h17.816v6.258H83.033zM83.475 124.145h28.085a.442.442 0 0 1 .442.442v19.506a.442.442 0 0 1-.442.442H83.475a.442.442 0 0 1-.442-.442v-19.506a.442.442 0 0 1 .442-.442Z"/><circle cx="39.933" cy="90.028" r="1.413" fill="#fff"/><path fill="#fff" d="M46.04 90.028a1.413 1.413 0 1 1-1.413-1.413 1.413 1.413 0 0 1 1.413 1.413zm4.693 0a1.413 1.413 0 1 1-1.413-1.413 1.413 1.413 0 0 1 1.413 1.413z"/><path fill="#f851a7" d="M77.38 145.004a.463.463 0 0 1-.343-.147l-38.659-40.778a.471.471 0 0 1 .019-.666.478.478 0 0 1 .666.018l38.658 40.778a.471.471 0 0 1-.342.795zm34.62 0a.494.494 0 0 1-.272-.085L82.76 124.532a.473.473 0 0 1 .545-.773l28.969 20.387a.471.471 0 0 1-.272.858z"/><path fill="#f851a7" d="M83.344 145.004a.471.471 0 0 1-.272-.858l28.969-20.387a.473.473 0 0 1 .545.773l-28.97 20.387a.495.495 0 0 1-.272.085zm-45.013 0a.471.471 0 0 1-.343-.795l38.659-40.778a.478.478 0 0 1 .666-.018.47.47 0 0 1 .018.666l-38.658 40.778a.463.463 0 0 1-.342.147zm114.224-45.776v5.037a1.139 1.139 0 0 1-1.145 1.132h-11.12a.157.157 0 0 1-.074-.012 1.12 1.12 0 0 1-1.057-1.12v-5.037a1.128 1.128 0 0 1 1.132-1.132h11.12a1.114 1.114 0 0 1 1.131 1.057.157.157 0 0 1 .013.075z"/><path fill="url(#k)" style="mix-blend-mode:overlay" d="M152.542 99.153a.242.242 0 0 0-.087-.012 3.204 3.204 0 0 0-2.214.585 2.775 2.775 0 0 0-1.007 2.923c.286.945 1.107 1.654 1.33 2.611a.636.636 0 0 1 .026.137h-10.3a.157.157 0 0 1-.074-.012c.025-.025.037-.062.062-.087a7.865 7.865 0 0 0 .896-1.244 2.399 2.399 0 0 0-.075-2.003 3.86 3.86 0 0 0-1.393-1.505c-.174-.112-.36-.223-.547-.335v-.983a1.128 1.128 0 0 1 1.132-1.132h11.12a1.114 1.114 0 0 1 1.131 1.057Z" opacity=".7"/><path fill="#fff" d="m141.692 101.868 2.801-1.36v.533l-2.222 1.034v.011l2.222 1.04v.527l-2.801-1.36zm3.21 2.02 1.443-4.283h.508l-1.442 4.284zm5.107-1.583-2.8 1.348v-.526l2.257-1.04v-.012l-2.258-1.04v-.526l2.801 1.347z"/><path fill="#cc3a8a" d="m99.716 147.377-1.196.216a5.455 5.455 0 0 0-.587-.904l.703-1.001a1.087 1.087 0 0 0-.271-1.502l-1.174-.807c-.493-.335-2.45-.342-2.787.143l.59 1.12a5.829 5.829 0 0 0-1.051-.226l-.216-1.196c-.104-.577-1.932-.972-2.517-.866l-.127.252a1.08 1.08 0 0 0-.875 1.249l.216 1.196a6.493 6.493 0 0 0-.906.578l-.998-.685c-.484-.336-2.287-.477-2.624.007l.322 1.427a1.071 1.071 0 0 0 .271 1.502l.992.696a6.146 6.146 0 0 0-.226 1.05l-1.196.217a1.072 1.072 0 0 0-.866 1.247l-.593 1.991c.104.577 1.51.386 2.094.28l1.197-.215a6.502 6.502 0 0 0 .578.905l-.687.99a1.071 1.071 0 0 0 .271 1.502l.189.929a2.655 2.655 0 0 0 2.47-.381l.695-1a5.755 5.755 0 0 0 1.052.234l-.783 1.748c.106.585 1.661.42 2.255.312l1.397-.252a1.08 1.08 0 0 0 .864-1.256l-.214-1.188a5.216 5.216 0 0 0 .904-.587l1 .695a1.087 1.087 0 0 0 1.502-.272l.816-1.175a1.087 1.087 0 0 0-.271-1.502l-1.008-.684a5.738 5.738 0 0 0 .234-1.052l1.197-.216a1.077 1.077 0 0 0 .866-1.247l-.254-1.406a1.072 1.072 0 0 0-1.248-.866Zm-5.71 7.424a4.503 4.503 0 1 1 3.636-5.228 4.5 4.5 0 0 1-3.637 5.228Z"/><path fill="#efb9d3" d="M92.405 145.938a4.503 4.503 0 1 0 5.237 3.635 4.503 4.503 0 0 0-5.237-3.635Zm1.309 7.248a2.866 2.866 0 1 1 2.313-3.321 2.863 2.863 0 0 1-2.313 3.32Z"/><path fill="#f851a7" d="m98.324 147.377-1.197.216a5.455 5.455 0 0 0-.587-.904l.703-1.001a1.087 1.087 0 0 0-.27-1.502l-1.174-.807a1.087 1.087 0 0 0-1.502.27l-.696.992a5.829 5.829 0 0 0-1.05-.225l-.217-1.196a1.077 1.077 0 0 0-1.247-.866l-1.397.252a1.08 1.08 0 0 0-.875 1.249l.216 1.196a6.493 6.493 0 0 0-.905.578l-.999-.685a1.077 1.077 0 0 0-1.493.27l-.808 1.164a1.071 1.071 0 0 0 .27 1.502l.992.696a6.146 6.146 0 0 0-.225 1.05l-1.197.217a1.072 1.072 0 0 0-.865 1.247l.253 1.406a1.077 1.077 0 0 0 1.248.866l1.196-.216a6.502 6.502 0 0 0 .578.905l-.687.99a1.071 1.071 0 0 0 .271 1.502l1.167.817a1.077 1.077 0 0 0 1.493-.27l.694-1a5.755 5.755 0 0 0 1.052.235l.215 1.187a1.081 1.081 0 0 0 1.257.873l1.397-.252a1.08 1.08 0 0 0 .865-1.256l-.215-1.188a5.216 5.216 0 0 0 .904-.587l1 .695a1.087 1.087 0 0 0 1.502-.272l.816-1.175a1.087 1.087 0 0 0-.271-1.502l-1.007-.684a5.738 5.738 0 0 0 .234-1.052l1.196-.216a1.077 1.077 0 0 0 .866-1.247l-.254-1.406a1.072 1.072 0 0 0-1.247-.866Zm-5.711 7.424a4.503 4.503 0 1 1 3.636-5.228 4.5 4.5 0 0 1-3.636 5.228Z"/><path fill="#fcdeeb" d="M91.013 145.938a4.503 4.503 0 1 0 5.236 3.635 4.503 4.503 0 0 0-5.236-3.635Zm1.308 7.248a2.866 2.866 0 1 1 2.313-3.321 2.863 2.863 0 0 1-2.313 3.32Z"/><path fill="#cc3a8a" d="m82.619 150.465-.902.163a4.127 4.127 0 0 0-.443-.681l.53-.755a.82.82 0 0 0-.204-1.133l-.885-.608c-.372-.252-1.848-.258-2.101.108l.444.844a4.391 4.391 0 0 0-.792-.17l-.163-.902c-.078-.435-1.456-.733-1.897-.653l-.097.19a.814.814 0 0 0-.659.942l.163.902a4.897 4.897 0 0 0-.683.436l-.753-.517c-.365-.254-1.724-.36-1.978.005l.243 1.076a.808.808 0 0 0 .204 1.133l.748.524a4.628 4.628 0 0 0-.17.792l-.902.163a.808.808 0 0 0-.653.94l-.447 1.502c.078.434 1.138.29 1.579.211l.902-.163a4.894 4.894 0 0 0 .436.683l-.518.746a.808.808 0 0 0 .204 1.132l.143.7a2.001 2.001 0 0 0 1.862-.287l.524-.753a4.33 4.33 0 0 0 .793.176l-.59 1.318c.08.441 1.252.316 1.7.235l1.053-.19a.814.814 0 0 0 .652-.947l-.162-.895a3.94 3.94 0 0 0 .682-.443l.753.524a.82.82 0 0 0 1.133-.205l.615-.886a.82.82 0 0 0-.205-1.132l-.759-.515a4.334 4.334 0 0 0 .177-.794l.901-.163a.812.812 0 0 0 .653-.94l-.191-1.06a.808.808 0 0 0-.94-.653Zm-4.306 5.597a3.395 3.395 0 1 1 2.742-3.941 3.393 3.393 0 0 1-2.742 3.941Z"/><path fill="#efb9d3" d="M77.107 149.38a3.395 3.395 0 1 0 3.948 2.74 3.395 3.395 0 0 0-3.948-2.74Zm.986 5.464a2.16 2.16 0 1 1 1.744-2.503 2.158 2.158 0 0 1-1.744 2.503Z"/><path fill="#f851a7" d="m81.569 150.465-.902.163a4.12 4.12 0 0 0-.443-.681l.53-.755a.82.82 0 0 0-.204-1.133l-.885-.608a.82.82 0 0 0-1.132.204l-.525.748a4.391 4.391 0 0 0-.792-.17l-.163-.902a.812.812 0 0 0-.94-.653l-1.054.19a.814.814 0 0 0-.659.942l.163.902a4.896 4.896 0 0 0-.683.436l-.752-.517a.812.812 0 0 0-1.126.203l-.61.878a.808.808 0 0 0 .205 1.133l.747.524a4.638 4.638 0 0 0-.17.792l-.902.163a.808.808 0 0 0-.653.94l.192 1.06a.812.812 0 0 0 .94.653l.902-.163a4.903 4.903 0 0 0 .436.683l-.518.746a.808.808 0 0 0 .204 1.132l.88.617a.812.812 0 0 0 1.126-.204l.523-.753a4.334 4.334 0 0 0 .793.176l.162.895a.815.815 0 0 0 .948.658l1.053-.19a.814.814 0 0 0 .652-.947l-.162-.895a3.941 3.941 0 0 0 .682-.443l.754.524a.82.82 0 0 0 1.132-.205l.615-.886a.82.82 0 0 0-.204-1.132l-.76-.515a4.334 4.334 0 0 0 .177-.794l.902-.163a.812.812 0 0 0 .652-.94l-.191-1.06a.808.808 0 0 0-.94-.653Zm-4.306 5.597a3.395 3.395 0 1 1 2.742-3.941 3.393 3.393 0 0 1-2.742 3.941Z"/><path fill="#fcdeeb" d="M76.057 149.38a3.395 3.395 0 1 0 3.948 2.74 3.395 3.395 0 0 0-3.948-2.74Zm.986 5.464a2.16 2.16 0 1 1 1.744-2.503 2.158 2.158 0 0 1-1.744 2.503Z"/><path fill="#131f77" d="M158.89 74.052v1.626a3 3 0 0 1-3.003 3.003H111.05a3.023 3.023 0 0 1-3.003-3.003v-1.626a3.014 3.014 0 0 1 1.908-2.79 2.88 2.88 0 0 1 1.095-.213h44.836a3 3 0 0 1 3.003 3.003Z"/><path fill="url(#l)" style="mix-blend-mode:overlay" d="M158.89 74.052v1.626a3 3 0 0 1-3.003 3.003H111.05a3.023 3.023 0 0 1-3.003-3.003v-1.626a3.014 3.014 0 0 1 1.908-2.79 32.894 32.894 0 0 1 5.335 2.119c8.868 3.851 19.75 3.922 27.735-1.52.353-.247.707-.53 1.095-.812h11.766a3 3 0 0 1 3.003 3.003Z" opacity=".7"/><path fill="#fff" d="m155.02 75.508-.055-.083-.386-.578a1.502 1.502 0 1 0-2.273-.276 1.505 1.505 0 0 0 1.832.565l.386.579.041.069.469.73.454-.303Zm-.91-.91a1.005 1.005 0 0 1-1.405-.289.994.994 0 0 1 .29-1.405 1.015 1.015 0 1 1 1.115 1.695Z"/><path fill="#fff" d="m155.065 75.367-.638.418a.011.011 0 0 0-.003.015l1.198 1.829a.011.011 0 0 0 .015.003l.638-.418a.011.011 0 0 0 .003-.015l-1.198-1.829a.011.011 0 0 0-.015-.003Z"/><path fill="#f851a7" d="M163.64 85.517v5.144a1.163 1.163 0 0 1-1.17 1.155h-11.354a.161.161 0 0 1-.076-.012 1.143 1.143 0 0 1-1.08-1.143v-5.144a1.152 1.152 0 0 1 1.156-1.156h11.355a1.137 1.137 0 0 1 1.156 1.08.161.161 0 0 1 .012.076Z"/><path fill="url(#m)" style="mix-blend-mode:overlay" d="M163.627 85.44a.248.248 0 0 0-.09-.012 3.273 3.273 0 0 0-2.26.597 2.834 2.834 0 0 0-1.029 2.984c.292.966 1.13 1.69 1.359 2.668a.654.654 0 0 1 .026.14h-10.517a.161.161 0 0 1-.076-.013c.025-.026.038-.064.063-.09a8.032 8.032 0 0 0 .915-1.27 2.45 2.45 0 0 0-.077-2.044 3.942 3.942 0 0 0-1.422-1.537 21.14 21.14 0 0 0-.559-.343v-1.003a1.152 1.152 0 0 1 1.156-1.156h11.355a1.137 1.137 0 0 1 1.156 1.08Z" opacity=".7"/><path fill="#fff" d="M152.659 87.846c.515-.007.574-.287.574-.523a5.38 5.38 0 0 0-.044-.588 4.284 4.284 0 0 1-.051-.597c0-.692.441-.986 1.096-.986h.214v.53h-.133c-.382 0-.515.213-.515.574a2.642 2.642 0 0 0 .051.464c.015.162.045.338.045.53a.713.713 0 0 1-.59.824v.015a.72.72 0 0 1 .59.832 5.39 5.39 0 0 1-.045.537 2.641 2.641 0 0 0-.051.464c0 .368.147.582.515.582h.133v.522h-.214c-.64 0-1.096-.265-1.096-1.009a4.185 4.185 0 0 1 .051-.589 5.24 5.24 0 0 0 .044-.581c0-.214-.059-.515-.574-.523zm8.281.478c-.507.008-.574.31-.574.523a5.35 5.35 0 0 0 .052.581 5.632 5.632 0 0 1 .051.59c0 .743-.456 1.008-1.096 1.008h-.214v-.522h.132c.369-.008.508-.214.508-.582a3.51 3.51 0 0 0-.044-.464 3.854 3.854 0 0 1-.044-.537.721.721 0 0 1 .582-.832v-.015a.714.714 0 0 1-.582-.824 3.832 3.832 0 0 1 .044-.53 3.51 3.51 0 0 0 .044-.464c0-.361-.132-.567-.508-.574h-.132v-.53h.214c.655 0 1.096.294 1.096.986a5.764 5.764 0 0 1-.051.597 5.494 5.494 0 0 0-.052.588c0 .236.067.516.574.523z"/><path fill="#f851a7" d="M164.745 116.897v38.24a5.037 5.037 0 0 1-5.052 5.033h-52.47a5.034 5.034 0 0 1-4.83-3.557 5.911 5.911 0 0 1-.202-1.476v-38.24a4.88 4.88 0 0 1 .788-2.689 4.984 4.984 0 0 1 4.244-2.344h33.47a1.068 1.068 0 0 0 .506 0h18.494a5.033 5.033 0 0 1 4.062 2.041 4.967 4.967 0 0 1 .99 2.992Z"/><path fill="url(#n)" style="mix-blend-mode:overlay" d="M164.745 148.932v6.205a5.037 5.037 0 0 1-5.052 5.033h-52.47a5.034 5.034 0 0 1-4.83-3.557 5.911 5.911 0 0 1-.202-1.476v-5.558c.444-.081.91-.162 1.374-.223 1.01-.161 2.021-.282 3.052-.424a37.144 37.144 0 0 0 6.852-1.415 12.307 12.307 0 0 0 1.778-.748 14.34 14.34 0 0 0 3.578-2.486 12.884 12.884 0 0 0 1.01-1.111 2.993 2.993 0 0 1 .243-.283v-.02a7.527 7.527 0 0 0-.303-9.904 14.56 14.56 0 0 0-.95-.99 13.685 13.685 0 0 0-3.315-2.244 4.434 4.434 0 0 0-.626-.303 34.43 34.43 0 0 0-2.385-.95 3.684 3.684 0 0 0-.506-.162 25.994 25.994 0 0 0-1.778-.566c-.506-.182-1.01-.323-1.516-.485-.364-.121-.748-.242-1.112-.363a34.486 34.486 0 0 1-1.536-.566c-.445-.182-.89-.385-1.354-.587a17.803 17.803 0 0 1-2.506-1.414v-7.438a4.88 4.88 0 0 1 .788-2.688 4.984 4.984 0 0 1 4.244-2.345h33.47a1.068 1.068 0 0 0 .506 0h18.494a5.033 5.033 0 0 1 4.062 2.041c-.606-.08-1.071-.202-1.374-.222-3.982-.384-8.267-.707-11.784 1.071a8.075 8.075 0 0 0-1.07.607 8.955 8.955 0 0 0-1.76 1.495 11.368 11.368 0 0 0-2.87 6.246 10.614 10.614 0 0 0-.08 2.263 13.182 13.182 0 0 0 1.071 4.366 14.206 14.206 0 0 0 1.617 2.91c.424.587.89 1.153 1.374 1.698a13.875 13.875 0 0 0 1.092 1.092c2.769 2.486 6.205 4.042 9.115 6.326a20.696 20.696 0 0 1 2.183 2.021c.263.263.485.505.728.788l.02.02a18.06 18.06 0 0 1 2.728 4.346Z" opacity=".7"/><path fill="#fff" d="M162.003 119.313v1.332a2.464 2.464 0 0 1-2.473 2.454h-36.602a2.46 2.46 0 0 1-2.454-2.454v-1.332a2.46 2.46 0 0 1 2.454-2.454h36.602a2.464 2.464 0 0 1 2.473 2.454Z"/><path fill="#131f77" d="m158.823 120.494-.04-.06-.303-.465a1.257 1.257 0 0 0 .182-1.577 1.235 1.235 0 0 0-1.698-.363 1.232 1.232 0 0 0 1.152 2.162l.303.485.04.04.385.607.364-.242Zm-.727-.748a.817.817 0 0 1-1.152-.222.824.824 0 1 1 1.374-.91.794.794 0 0 1-.222 1.132Z"/><path fill="#131f77" d="m158.868 120.385-.517.34a.011.011 0 0 0-.004.015l.977 1.49a.011.011 0 0 0 .015.003l.518-.339a.011.011 0 0 0 .003-.015l-.976-1.49a.011.011 0 0 0-.016-.004Z"/><path fill="#fff" d="M106.621 129.726h13.853v3.231h-13.853zM123.858 129.726H147.5v3.231h-23.642zM149.464 129.726h12.539v3.231h-12.539zM106.893 137.195h24.758a.272.272 0 0 1 .272.272v15.186a.272.272 0 0 1-.272.272h-24.758a.272.272 0 0 1-.272-.272v-15.186a.272.272 0 0 1 .272-.272ZM137.898 137.195h9.237v1.311h-9.237zM137.898 140.487h9.237v1.311h-9.237zM138.056 143.78h23.789a.158.158 0 0 1 .158.158v8.829a.158.158 0 0 1-.158.158h-23.79a.158.158 0 0 1-.158-.158v-8.83a.158.158 0 0 1 .159-.157Z"/><path fill="#f851a7" d="M115.25 148.16v-6.2a.923.923 0 0 1 1.335-.825l6.2 3.1a.923.923 0 0 1 0 1.65l-6.2 3.1a.923.923 0 0 1-1.336-.826Z"/><path d="m101.948 108.67-6.831-13.48-3.7-7.317-.383-.768a1.642 1.642 0 0 0 .424-1.96l-.12-.243-3.194-6.286c-.02-.02-.04-.06-.061-.08a1.607 1.607 0 0 0-2.163-.627l-13.804 6.993-.607.303a1.62 1.62 0 0 0-.727 2.203l.647 1.273.06.142-12.571 6.367-10.288 5.214a2.84 2.84 0 0 0-.627.425 2.886 2.886 0 0 0-.848 2.93 2.81 2.81 0 0 0 .202.526l1.698 3.355 5.275 10.429-.162.06-.728.465-.828.506-1.334.828s-.101.344-.243.768l-.141.04.06.163c-.303.95-.727 2.243-.727 2.304s2.324 2.486 2.324 2.486l.546.161.06.122h.101a.606.606 0 0 1-.08.161 4.635 4.635 0 0 0-1.8-.182c-3.455.647-6.67 4.65-9.761 8.873-.546.708-1.051 1.435-1.577 2.143a.622.622 0 0 0 .02.647 16.544 16.544 0 0 0-.849 5.295c-.04.505-.04.97-.04 1.415a.074.074 0 0 1-.02.06c-.02 1.678-.06 3.032-.748 4.023-.384.566-1.132 1.576-2.042 2.789.182 0 .364.02.546.02h6.407a8.988 8.988 0 0 0 .708-.87 12.112 12.112 0 0 0 1.293-5.234 1.74 1.74 0 0 0 .02-.323c1.395 2.405 2.608 3.335 3.133 4.931.122.364.283.87.505 1.496h5.074a33.32 33.32 0 0 0-.93-5.376 23.878 23.878 0 0 0-.505-1.314 44.932 44.932 0 0 0-2.244-4.669c1.476-1.799 2.89-3.274 4.063-4.69 1.94.971 3.88 1.699 4.487 1.436a14.423 14.423 0 0 0 2.142-2.163c.788-.93 1.718-2.081 2.628-3.233a1.784 1.784 0 0 0 .303-.102.972.972 0 0 0 .141-.06l.748-.384 11.38-5.76 1.11-.546 8.389-4.245 8.468-4.285 3.921-1.98 2.507-1.274a2.9 2.9 0 0 0 1.293-3.9zm-43.556 17.443-2.041.081-.445.02c.02-.08.04-.182.06-.263a3.896 3.896 0 0 0 .728-.12h.02a1.56 1.56 0 0 0 .85-.445v-.465a4.081 4.081 0 0 0-.02-.485l.161.323v.02zm-1.293 4.063c1.01-.081 2.122-.223 3.153-.404a2.686 2.686 0 0 0 .525.707l-2.587 2.546-1.637-1.05a10.192 10.192 0 0 0 .566-1.557c0-.08-.02-.162-.02-.242zm96.065-5.255-2.91 4.81-.788 1.294-.465.768-.061.848h-.263a16.232 16.232 0 0 1 .203 1.698 51.553 51.553 0 0 1-.486 9.44q-.12 1.182-.242 2.485l.97 6.67 1.05 7.236h-3.536l-2.223-7.236-2.304-7.418a42.85 42.85 0 0 0-.344-1.738c-.04-.263-.101-.525-.162-.808-.1.262-.202.525-.303.808-.121.303-.222.606-.344.93l-.909 8.226-.808 7.236h-3.133l-.829-17.706c.182-1.778.162-4.972.505-7.72v-.02l.122-.728a7.691 7.691 0 0 1 .222-1.031 6.687 6.687 0 0 1 .647-1.799c-.162-.08-.344-.121-.485-.202a3.956 3.956 0 0 0 .505-1.233c.505-1.738.283-4.123.02-6.63-.1-1.11-.222-2.263-.283-3.375-1.718 1.496-3.153 2.547-3.719 2.507l-8.206-.768-4.082-.405-1.031-.1-.667.02h-.445l-.768-1.335-1.354.223c-.748.222-.91-.344-.162-.566l2.607-.707.122.06 1.111.647.546-.06 4.022-.365 7.438-.707 1.455-1.314 3.477-3.153a2.634 2.634 0 0 1 .849-.465 8.15 8.15 0 0 1 3.577-1.07c.02-.102.02-.203.04-.304v-.02a.344.344 0 0 1-.141.02 1.068 1.068 0 0 1-.505 0 .182.182 0 0 1-.101-.02 17.76 17.76 0 0 1-1.617-3.477l-.688.243.182-2.79 1.496-1.657 3.274.142s.243.222.566.525l.142-.04.02.162c.707.646 1.677 1.536 1.698 1.576 0 .142-.768 3.194-.768 3.194l-.364.384v.12c-.08.062-.182.102-.263.163l-.343.363-.101-.1a6.887 6.887 0 0 0 .202 1.212.598.598 0 0 0 .04.202c2.405.081 4.71.606 5.78 1.476a1.071 1.071 0 0 1 .486.505c.1.243.182.465.262.707.283.708.546 1.395.789 2.102a42.921 42.921 0 0 1 1.738 6.246 3.39 3.39 0 0 1 .04 1.819z" opacity=".1"/><path fill="#fff" d="M83.358 77.144a1.024 1.024 0 1 1-1.024-1.024 1.024 1.024 0 0 1 1.024 1.024Z"/><path fill="#131f77" d="M60.55 61.63h-.59a3.653 3.653 0 0 0-.25-.585l.415-.415a.923.923 0 0 0 .268-.84.975.975 0 0 0-.268-.508l-.647-.648a.913.913 0 0 0-.643-.267.99.99 0 0 0-.719.267l-.402.42a2.665 2.665 0 0 0-.584-.232v-.59a.992.992 0 0 0-.947-.96h-.92a.963.963 0 0 0-.968.96v.59a2.757 2.757 0 0 0-.585.232l-.402-.42a.99.99 0 0 0-1.362 0l-.647.648a.94.94 0 0 0 0 1.348l.42.415c-.107.188-.17.398-.255.585h-.59a.722.722 0 0 0-.218.031.603.603 0 0 0-.12.032.966.966 0 0 0-.599.906v.902a.83.83 0 0 0 .014.152c0 .013.004.03.004.044a.96.96 0 0 0 .036.134c.004.01.004.014.009.022a.824.824 0 0 0 .049.112c.004.009.013.022.018.031a.718.718 0 0 0 .093.134.933.933 0 0 0 .715.335h.59c.062.156.115.304.182.442a1.42 1.42 0 0 0 .072.143l-.197.196v.005l-.223.223a.883.883 0 0 0-.286.66.668.668 0 0 0 .018.166.693.693 0 0 0 .045.165.913.913 0 0 0 .223.348l.647.648a.949.949 0 0 0 1.362 0l.402-.393a5.677 5.677 0 0 0 .585.228v.589a.07.07 0 0 0 .022.062 1.15 1.15 0 0 0 .027.179.421.421 0 0 0 .044.125.278.278 0 0 0 .045.098.065.065 0 0 0 .027.04.203.203 0 0 0 .049.076.771.771 0 0 0 .058.067.741.741 0 0 0 .17.143.706.706 0 0 0 .13.067.728.728 0 0 0 .138.05l.098.026a.98.98 0 0 0 .16.013h.92a.944.944 0 0 0 .947-.946v-.59a5.303 5.303 0 0 0 .584-.227l.402.393a.954.954 0 0 0 .724.281l-2.371-2.156a9.162 9.162 0 0 1-.179.053.893.893 0 0 1-.152.023 2.099 2.099 0 0 1-.41.04 2.688 2.688 0 0 1-1.255-.308 2.625 2.625 0 0 1-1.415-2.33 2.674 2.674 0 0 1 2.67-2.67 2.469 2.469 0 0 1 .96.187 2.698 2.698 0 0 1 .343.16 2.995 2.995 0 0 1 .304.202 2.663 2.663 0 0 1 .536.562.612.612 0 0 1 .067.094 2.65 2.65 0 0 1 .268.54.85.85 0 0 1 .03.098 2.31 2.31 0 0 1 .117.58 2.27 2.27 0 0 1 .013.246 2.78 2.78 0 0 1-.102.746l2.147 2.357a.865.865 0 0 0-.286-.692l-.415-.424a2.96 2.96 0 0 0 .25-.585h.59a.95.95 0 0 0 .946-.964v-.902a.963.963 0 0 0-.947-.969Z"/><path fill="#f851a7" d="M61.795 69.13a.582.582 0 0 1-.804.018l-4.263-3.88-.397-.365-.188.049-.536.138a.804.804 0 0 1-.795-.21l-.5-.5-.383-.384a.256.256 0 0 1 0-.352l.28-.282a.256.256 0 0 1 .353 0l.652.648a.496.496 0 0 0 .483.13l.446-.117.433-.116.232-.88a.518.518 0 0 0-.13-.486l-.535-.531-.116-.116a.256.256 0 0 1 0-.353l.286-.281a.256.256 0 0 1 .352 0l.112.111.192.192.58.58a.836.836 0 0 1 .21.8l-.192.718 4.25 4.666a.583.583 0 0 1-.022.803Z"/><path fill="url(#o)" style="mix-blend-mode:overlay" d="M58.84 67.742a.954.954 0 0 1-.724-.281l-.402-.393a5.303 5.303 0 0 1-.584.228v.589a.944.944 0 0 1-.947.946h-.92a.98.98 0 0 1-.16-.013 2.693 2.693 0 0 1-.098-.027.728.728 0 0 1-.139-.049.706.706 0 0 1-.13-.067.741.741 0 0 1-.169-.143.771.771 0 0 1-.058-.067.203.203 0 0 1-.05-.076.065.065 0 0 1-.026-.04.278.278 0 0 1-.045-.098.421.421 0 0 1-.044-.125 1.15 1.15 0 0 1-.027-.179.07.07 0 0 1-.022-.062v-.59a5.677 5.677 0 0 1-.585-.227l-.402.393a.949.949 0 0 1-1.362 0l-.647-.648a.913.913 0 0 1-.223-.348.693.693 0 0 1-.045-.165.668.668 0 0 1-.018-.165.883.883 0 0 1 .286-.66l.223-.224v-.005l.197-.196a1.42 1.42 0 0 1-.072-.143c-.067-.138-.12-.286-.183-.442h-.59a.933.933 0 0 1-.714-.335.718.718 0 0 1-.093-.134l-.018-.03a.824.824 0 0 1-.05-.112l-.008-.023a.96.96 0 0 1-.036-.134c0-.013-.004-.031-.004-.044a.83.83 0 0 1-.014-.152v-.902a.966.966 0 0 1 .599-.906 1.145 1.145 0 0 1 .089.116 6.396 6.396 0 0 1 .656 1.031c.228.42.429.857.66 1.272a6.03 6.03 0 0 0 .706 1.085 2.878 2.878 0 0 0 1.965 1.094 1.704 1.704 0 0 0 .424-.022 2.668 2.668 0 0 0 1.102-.518 1.882 1.882 0 0 0 .152-.112l.179-.053Z" opacity=".5"/><path fill="url(#p)" style="mix-blend-mode:overlay" d="M61.496 62.599v.902a.95.95 0 0 1-.947.964h-.589a2.96 2.96 0 0 1-.25.585l.415.424a.865.865 0 0 1 .286.692l-2.147-2.357a2.78 2.78 0 0 0 .102-.746 2.27 2.27 0 0 0-.013-.245 2.31 2.31 0 0 0-.116-.58.85.85 0 0 0-.031-.099 2.65 2.65 0 0 0-.268-.54.612.612 0 0 0-.067-.094 2.663 2.663 0 0 0-.536-.562 2.995 2.995 0 0 0-.304-.201 1.473 1.473 0 0 1 1.496-1.313c.05-.004.103-.004.152-.004a5.583 5.583 0 0 1 1.714.366.923.923 0 0 1-.268.84l-.415.414a3.653 3.653 0 0 1 .25.585h.59a.963.963 0 0 1 .946.969Z" opacity=".5"/><path fill="url(#q)" style="mix-blend-mode:overlay" d="M61.796 69.132a.584.584 0 0 1-.804.017l-4.263-3.882a1.914 1.914 0 0 0 .37-.433 1.803 1.803 0 0 0 .217-.974c-.017-.775-.296-1.522-.348-2.297l.582.581a.84.84 0 0 1 .21.798l-.193.718 4.252 4.668a.584.584 0 0 1-.023.803Z" opacity=".5"/><path fill="#f4bc84" d="M59.64 126.065c-.675 1.09-7.668 2.016-9.68 1.648-1.412-.168-1.268-3.507 1.064-3.916l5.97-.25 1.855-9.9 1.694.115c.239 3.291-.471 11.469-.903 12.303zm.898-12.305s.954-1.128.747-1.97c-.221-.896-2.132-1.052-2.59-.627s.487 1.248.226 1.39-.483-.306-.694-.093.628 1.183.628 1.183z"/><path fill="#fcdeeb" d="m84.763 80.738 12.891 25.476a2.904 2.904 0 0 1-1.297 3.903l-36.512 18.475a2.9 2.9 0 0 1-3.892-1.277L43.062 101.84a2.9 2.9 0 0 1 1.276-3.892L80.85 79.472a2.904 2.904 0 0 1 3.913 1.266Z"/><path fill="url(#r)" style="mix-blend-mode:overlay" d="m84.763 80.738 2.367 4.677c-1.306.016-2.684-.162-3.59-.168a11.514 11.514 0 0 0-6.713 2.057 6.996 6.996 0 0 0-2.973 6.142 7.485 7.485 0 0 0 .836 2.67 11.376 11.376 0 0 0 4.897 4.993c1.587.846 3.337 1.3 4.924 2.146a10.632 10.632 0 0 1 5.426 10.11l-30.092 15.227a2.9 2.9 0 0 1-3.892-1.277l-1.454-2.871a16.73 16.73 0 0 1 1.575-1.93c1.166-1.26 2.311-2.51 3.477-3.77 1.903-2.044 3.936-4.593 3.347-7.336-.546-2.506-3.093-4.025-5.473-5.011-3.224-1.332-6.776-2.343-10.186-1.596a10.696 10.696 0 0 1-2.373.402c-.03-.01-.082-.01-.113-.02l-1.691-3.344a2.9 2.9 0 0 1 1.276-3.892L80.85 79.472a2.904 2.904 0 0 1 3.913 1.266Z" opacity=".7"/><path fill="#f851a7" d="m45.864 102.27 6.703-3.39.89 1.757-6.704 3.392z"/><path fill="#131f77" d="m54.875 97.711 13.297-6.728.89 1.758-13.298 6.728z"/><path fill="#f851a7" d="m69.325 90.4 3.846-1.947.89 1.759-3.846 1.946z"/><path fill="#fff" d="m74.27 87.898 9.175-4.643.89 1.758-9.175 4.643zM49.367 109.194l6.703-3.392.89 1.758-6.704 3.392z"/><path fill="#f851a7" d="m58.378 104.634 7.046-3.565.89 1.757-7.047 3.566z"/><path fill="#fff" d="m67.567 99.984 6.511-3.294.89 1.757-6.511 3.295z"/><path fill="#131f77" d="m75.026 96.21 11.923-6.032.889 1.757-11.923 6.033zM51.118 112.655l6.703-3.392.89 1.758-6.703 3.392z"/><path fill="#fff" d="m60.128 108.096 2.926-1.48.89 1.757-2.926 1.48zM64.305 105.983l17.857-9.036.89 1.758-17.857 9.036zM83.535 96.252l5.164-2.613.89 1.758-5.165 2.613z"/><path fill="#f851a7" d="m54.622 119.578 6.703-3.392.89 1.758-6.704 3.392z"/><path fill="#fff" d="m63.632 115.02 10.55-5.339.889 1.758-10.55 5.338zM75.665 108.93l10-5.06.89 1.76-10 5.059zM87.615 102.883l4.588-2.322.89 1.758-4.589 2.322zM56.373 123.04l6.703-3.391.89 1.758-6.704 3.391z"/><path fill="#131f77" d="m65.384 118.48 13.297-6.728.89 1.758-13.298 6.728z"/><path fill="#fff" d="m79.834 111.168 3.846-1.946.89 1.758-3.846 1.946zM84.78 108.667l9.174-4.643.89 1.758-9.175 4.643z"/><path fill="#131f77" d="m83.851 76.17 3.304 6.53a1.654 1.654 0 0 1-.74 2.217l-14.416 7.294a.229.229 0 0 1-.104.033 1.627 1.627 0 0 1-2.105-.758l-3.304-6.53a1.639 1.639 0 0 1 .724-2.21l14.415-7.293a1.618 1.618 0 0 1 2.16.628.229.229 0 0 1 .066.088Z"/><path fill="url(#s)" style="mix-blend-mode:overlay" d="M83.786 76.08a.349.349 0 0 0-.121.042 4.655 4.655 0 0 0-2.487 2.21 4.032 4.032 0 0 0 .612 4.45c.99 1.037 2.52 1.418 3.438 2.513a.929.929 0 0 1 .122.16L72 92.212a.229.229 0 0 1-.105.033c.016-.049.007-.105.023-.154a11.425 11.425 0 0 0 .345-2.2 3.486 3.486 0 0 0-1.41-2.546 5.609 5.609 0 0 0-2.793-1.038c-.3-.03-.615-.053-.93-.076l-.644-1.274a1.639 1.639 0 0 1 .724-2.21l14.415-7.293a1.618 1.618 0 0 1 2.16.628Z" opacity=".7"/><path fill="#fff" d="m71.501 86.717 2.74-3.6.349.69-2.203 2.798.008.015 3.563-.109.345.682-4.523.075zm5.487.514-.94-6.5.658-.333.941 6.5zm5.582-5.403-2.748 3.584-.345-.682 2.244-2.829-.007-.015-3.609.132-.345-.682 4.515-.09z"/><path fill="#f4bc84" d="M51.002 160.453a1.646 1.646 0 0 0 .367.884c.358.466-2.32 1.536-2.32 1.536a2.047 2.047 0 0 1-.16-1.475 2.33 2.33 0 0 0 .08-1.265Z"/><path fill="#f851a7" d="M38.244 135.266c2.353 8.578 5.072 9.369 5.923 11.993s4.648 13.51 4.648 13.51a2.346 2.346 0 0 0 2.235-.335c-.753-6.845-1.461-14.878-2.226-17.048a41.137 41.137 0 0 0-5.564-10.297Z"/><path fill="#131f77" d="M48.697 162.425a1.967 1.967 0 0 0 .416 1.864c2.135-.66 4.23-1.254 6.183-1.99-.247-.763-2.6-1.12-3.83-1.064a3.492 3.492 0 0 1-2.769 1.19Z"/><path fill="#f4bc84" d="M26.598 159.432a1.673 1.673 0 0 0-.466.823c-.063.209-.395.15-.8.008a11.859 11.859 0 0 1-1.842-.905 1.872 1.872 0 0 1 .262-.423 2.012 2.012 0 0 1 .82-.612 2.23 2.23 0 0 0 .559-.296 1.6 1.6 0 0 0 .48-.409l.294.543.673 1.243Z"/><path fill="#f851a7" d="M41.152 135.767a67.36 67.36 0 0 1-.127 6.89 12.375 12.375 0 0 1-1.29 5.241c-1.245 1.937-8.173 6.842-13.137 11.614a9.597 9.597 0 0 1-1.651-1.55s7.594-9.73 9.16-12.006-.268-6.526 2.046-11.93Z"/><path fill="#131f77" d="M27.85 163.72a.55.55 0 0 1-.087.243c-1.777-1.099-3.522-2.402-5.358-3.692a1.983 1.983 0 0 1 1.235-1.474 1.342 1.342 0 0 0 .112.138 3.386 3.386 0 0 0 1.486 1.11 3.216 3.216 0 0 0 .894.21c.047.008.092.002.14.01.709.853 1.707 2.634 1.579 3.454zm7.907-29.2c-1.139 1.752 7.834 4.065 10.148 3.086 3.163-3.895 6.075-6.202 6.92-9.647.104-2.44-3.26-4.789-5.74-4.45-4.037.764-7.766 6.089-11.328 11.01z"/><path fill="#f4bc84" d="M54.63 134.154c-1.177.508-7.444-2.73-8.885-4.182-1.061-.945.965-3.602 3.113-2.604l5.041 3.207 7.182-7.062 1.323 1.063c-1.685 2.837-6.943 9.14-7.773 9.578zm7.772-9.583s1.427-.38 1.738-1.189c.331-.862-1.147-2.082-1.765-1.995s-.315 1.302-.61 1.27-.222-.528-.516-.473-.162 1.329-.162 1.329zm-10.864.808c-.248-.496.129-1.83.422-3.05l-2.162-.95a9.188 9.188 0 0 1-1.234 2.804c.602 1.512 2.333 2.095 2.974 1.196z"/><path fill="#f4bc84" d="M53.265 122.93c-.705.823-2.742.55-4.402.587l-2.263-5.225 5.159-1.753c1.39 1.504 1.5 3.911 1.506 6.39Z"/><path fill="#091038" d="m49.68 123.666.507-1.321-.927-1.388.368-.672.85.996.364-.166-.683-1.669 3.518-.613 1.505-5.305-5.304 2.146-2.892 1.808s-1.06 3.192-1.056 3.26 2.332 2.493 2.332 2.493Z"/><path fill="#f4bc84" d="m128.527 119.778-8.216-.774-5.108-.499.437-1.654 4.567-.432 7.436-.697 4.935-4.463c1.34-1.28 5.865-.59 4.492 1.225-3.347 3.65-7.474 7.362-8.543 7.294Z"/><path fill="#2445bc" d="m128.527 119.778-8.216-.774a25.643 25.643 0 0 1-.104-2.585l7.436-.697 4.935-4.463c1.34-1.28 5.865-.59 4.491 1.225-3.346 3.65-7.473 7.362-8.542 7.294Z"/><path fill="#f4bc84" d="m144.005 162.445.38 1.507-1.428 1.855 4.264-1.875-.763-.821-.401-1.332-2.052.666z"/><path fill="#131f77" d="M146.724 163.31a3.889 3.889 0 0 1-2.87 1.268l-1.81 2.19c-.68 1.405 5.31-1.16 5.616-2.18a1.183 1.183 0 0 0-.936-1.278Z"/><path fill="#2445bc" d="M143.947 128.035c1.375 5.328.456 9.402-.082 15.777l2.613 18.022-2.59.84-6.07-19.604c-.497-3.15-2.75-10.477-.865-12.52Z"/><path fill="#f4bc84" d="m132.105 160.326-.012 1.555-1.849 1.435 4.599-.74-.532-.987-.052-1.39-2.154.127z"/><path fill="#131f77" d="M134.519 161.848a3.889 3.889 0 0 1-3.098.504l-2.302 1.664c-1.012 1.188 5.43.215 5.984-.696a1.183 1.183 0 0 0-.584-1.472Z"/><path fill="#2445bc" d="M140.723 127.004c-.02 5.515-1.926 9.225-4.055 15.248l-2.008 18.106-.405.02-2.15.142h-.161l-.953-20.499c.182-1.784.162-4.988.506-7.725v-.02l.122-.73c.284-1.785.79-3.285 1.703-3.853Z"/><path fill="#131f77" d="M131.988 128.505c3.224 1.632 7.86 1.74 12.655 1.677l1.39-18.582c-1.39-2.479-11.789-2.812-13.235-.148-1.92 5.29 1.445 13.565-.81 17.053Z"/><path fill="#f4bc84" d="M136.78 110.212c.363-.39.376-1.72.437-2.924l2.249-.292a8.82 8.82 0 0 0 .378 2.919c-.964 1.23-2.716 1.299-3.064.297Z"/><path fill="#f4bc84" d="M136.29 109.382c.98.352 2.551-.843 3.955-1.6l-.594-5.437-5.139.987c-.446 1.916.607 3.978 1.779 6.05Z"/><path fill="#091038" d="m139.634 108.293-1.051-.861.114-1.6-.627-.385-.236 1.235-.383.035-.222-1.718-3.228 1.16.175-2.785 1.496-1.657 3.272.135s2.402 2.161 2.43 2.22-.762 3.188-.762 3.188Z"/><path fill="#fff" d="m140.034 132.015 2.909 2.518-.363.292-2.818-2.539.272-.271zM132.613 130.998l-1.116 1.278.122-.73.73-.811Z"/><path fill="#f4bc84" d="m148.874 122.462-4.278 7.056-2.676 4.38-1.298-1.116 1.602-4.298 2.615-6.995-1.865-6.388c-.568-1.764 2.028-5.535 3.062-3.507 1.825 4.602 3.365 9.935 2.838 10.868Z"/><path fill="#2445bc" d="m148.874 122.462-4.278 7.056a25.623 25.623 0 0 1-2.372-1.034l2.615-6.996-1.865-6.387c-.568-1.764 2.028-5.535 3.062-3.507 1.825 4.602 3.365 9.935 2.838 10.868Z"/><path fill="#f4bc84" d="M115.64 116.851l-1.237-.714-2.599.714.162.565 1.347-.223.765 1.34 1.125-.028.437-1.654zM111.804 116.851c-.749.216-.586.78.162.565"/></g></g></svg>